<?xml version="1.0" encoding="utf-8"?>
<!-- Generator: Adobe Illustrator 23.0.1, SVG Export Plug-In . SVG Version: 6.00 Build 0)  -->
<!DOCTYPE svg PUBLIC "-//W3C//DTD SVG 1.1//EN" "http://www.w3.org/Graphics/SVG/1.1/DTD/svg11.dtd" [
	<!ENTITY ns_extend "http://ns.adobe.com/Extensibility/1.0/">
	<!ENTITY ns_ai "http://ns.adobe.com/AdobeIllustrator/10.0/">
	<!ENTITY ns_graphs "http://ns.adobe.com/Graphs/1.0/">
	<!ENTITY ns_vars "http://ns.adobe.com/Variables/1.0/">
	<!ENTITY ns_imrep "http://ns.adobe.com/ImageReplacement/1.0/">
	<!ENTITY ns_sfw "http://ns.adobe.com/SaveForWeb/1.0/">
	<!ENTITY ns_custom "http://ns.adobe.com/GenericCustomNamespace/1.0/">
	<!ENTITY ns_adobe_xpath "http://ns.adobe.com/XPath/1.0/">
]>
<svg version="1.1" id="Layer_1" xmlns:x="&ns_extend;" xmlns:i="&ns_ai;" xmlns:graph="&ns_graphs;"
	 xmlns="http://www.w3.org/2000/svg" xmlns:xlink="http://www.w3.org/1999/xlink" x="0px" y="0px" viewBox="0 0 476.2 250"
	 enable-background="new 0 0 476.2 250" xml:space="preserve">
<metadata>
	<sfw  xmlns="&ns_sfw;">
		<slices></slices>
		<sliceSourceBounds  bottomLeftOrigin="true" height="580.8" width="633.9" x="-253.9" y="-256.9"></sliceSourceBounds>
	</sfw>
</metadata>
<g>
	<g>
		<path fill="#58595B" d="M238.1,0C106.6,0,0,56,0,125c0,69,106.6,125,238.1,125c131.5,0,238.1-56,238.1-125
			C476.2,56,369.6,0,238.1,0"/>
		<path fill="#595A5C" d="M238.1,0C106.6,0,0,56,0,125c0,69,106.6,125,238.1,125c131.5,0,238.1-56,238.1-125
			C476.2,56,369.6,0,238.1,0"/>
		<path fill="#5A5B5D" d="M238.1,0.1C106.6,0.1,0.1,56,0.1,125c0,69,106.6,124.9,238,124.9C369.6,250,476.1,194,476.1,125
			C476.1,56,369.6,0.1,238.1,0.1"/>
		<path fill="#5B5C5E" d="M238.1,0.1C106.6,0.1,0.1,56,0.1,125c0,69,106.6,124.9,238,124.9s238-55.9,238-124.9
			C476.1,56,369.5,0.1,238.1,0.1"/>
		<path fill="#5C5C5F" d="M238.1,0.1C106.7,0.1,0.1,56,0.1,125c0,69,106.6,124.9,238,124.9c131.4,0,238-55.9,238-124.9
			C476.1,56,369.5,0.1,238.1,0.1"/>
		<path fill="#5C5D60" d="M238.1,0.1C106.7,0.1,0.1,56,0.1,125c0,69,106.5,124.9,238,124.9c131.4,0,238-55.9,238-124.9
			C476.1,56,369.5,0.1,238.1,0.1"/>
		<path fill="#5D5E60" d="M238.1,0.2C106.7,0.2,0.2,56.1,0.2,125c0,68.9,106.5,124.8,237.9,124.8c131.4,0,238-55.9,238-124.8
			C476,56.1,369.5,0.2,238.1,0.2"/>
		<path fill="#5E5F61" d="M238.1,0.2C106.7,0.2,0.2,56.1,0.2,125c0,68.9,106.5,124.8,237.9,124.8S476,193.9,476,125
			C476,56.1,369.5,0.2,238.1,0.2"/>
		<path fill="#5F6062" d="M238.1,0.2C106.7,0.2,0.2,56.1,0.2,125c0,68.9,106.5,124.8,237.9,124.8C369.5,249.8,476,193.9,476,125
			C476,56.1,369.5,0.2,238.1,0.2"/>
		<path fill="#606163" d="M238.1,0.2C106.7,0.2,0.3,56.1,0.3,125c0,68.9,106.5,124.8,237.9,124.8C369.5,249.8,476,193.9,476,125
			C476,56.1,369.5,0.2,238.1,0.2"/>
		<path fill="#616264" d="M238.1,0.3C106.8,0.3,0.3,56.1,0.3,125c0,68.9,106.5,124.7,237.8,124.7C369.5,249.8,476,193.9,476,125
			C476,56.1,369.5,0.3,238.1,0.3"/>
		<path fill="#616365" d="M238.1,0.3C106.8,0.3,0.3,56.1,0.3,125c0,68.9,106.5,124.7,237.8,124.7c131.3,0,237.8-55.8,237.8-124.7
			C475.9,56.1,369.4,0.3,238.1,0.3"/>
		<path fill="#626366" d="M238.1,0.3C106.8,0.3,0.3,56.1,0.3,125c0,68.9,106.5,124.7,237.8,124.7c131.3,0,237.8-55.8,237.8-124.7
			C475.9,56.1,369.4,0.3,238.1,0.3"/>
		<path fill="#636467" d="M238.1,0.3C106.8,0.3,0.4,56.2,0.4,125c0,68.8,106.4,124.7,237.7,124.7c131.3,0,237.8-55.8,237.8-124.7
			C475.9,56.1,369.4,0.3,238.1,0.3"/>
		<path fill="#646567" d="M238.1,0.4C106.8,0.4,0.4,56.2,0.4,125c0,68.8,106.4,124.7,237.7,124.7c131.3,0,237.7-55.8,237.7-124.7
			C475.9,56.2,369.4,0.4,238.1,0.4"/>
		<path fill="#656668" d="M238.1,0.4C106.9,0.4,0.4,56.2,0.4,125c0,68.8,106.4,124.6,237.7,124.6c131.3,0,237.7-55.8,237.7-124.6
			C475.8,56.2,369.4,0.4,238.1,0.4"/>
		<path fill="#666769" d="M238.1,0.4C106.9,0.4,0.5,56.2,0.5,125c0,68.8,106.4,124.6,237.7,124.6c131.3,0,237.7-55.8,237.7-124.6
			C475.8,56.2,369.4,0.4,238.1,0.4"/>
		<path fill="#66686A" d="M238.1,0.4C106.9,0.4,0.5,56.2,0.5,125c0,68.8,106.4,124.6,237.6,124.6c131.2,0,237.7-55.8,237.7-124.6
			C475.8,56.2,369.4,0.4,238.1,0.4"/>
		<path fill="#67686B" d="M238.1,0.5C106.9,0.5,0.5,56.2,0.5,125c0,68.8,106.4,124.5,237.6,124.5c131.2,0,237.6-55.8,237.6-124.5
			C475.8,56.2,369.4,0.5,238.1,0.5"/>
		<path fill="#68696C" d="M238.1,0.5C106.9,0.5,0.5,56.2,0.5,125c0,68.8,106.4,124.5,237.6,124.5S475.7,193.8,475.7,125
			C475.7,56.2,369.3,0.5,238.1,0.5"/>
		<path fill="#696A6C" d="M238.1,0.5C106.9,0.5,0.6,56.3,0.6,125c0,68.8,106.4,124.5,237.6,124.5c131.2,0,237.6-55.7,237.6-124.5
			C475.7,56.3,369.3,0.5,238.1,0.5"/>
		<path fill="#6A6B6D" d="M238.1,0.5C107,0.5,0.6,56.3,0.6,125c0,68.7,106.4,124.5,237.5,124.5c131.2,0,237.6-55.7,237.6-124.5
			C475.7,56.3,369.3,0.5,238.1,0.5"/>
		<path fill="#6A6C6E" d="M238.1,0.6C107,0.6,0.6,56.3,0.6,125c0,68.7,106.3,124.5,237.5,124.5c131.2,0,237.5-55.7,237.5-124.5
			C475.7,56.3,369.3,0.6,238.1,0.6"/>
		<path fill="#6B6C6F" d="M238.1,0.6C107,0.6,0.7,56.3,0.7,125c0,68.7,106.3,124.4,237.5,124.4c131.2,0,237.5-55.7,237.5-124.4
			C475.7,56.3,369.3,0.6,238.1,0.6"/>
		<path fill="#6C6D70" d="M238.1,0.6C107,0.6,0.7,56.3,0.7,125c0,68.7,106.3,124.4,237.5,124.4c131.2,0,237.5-55.7,237.5-124.4
			C475.6,56.3,369.3,0.6,238.1,0.6"/>
		<path fill="#6D6E70" d="M238.1,0.6C107,0.6,0.7,56.3,0.7,125c0,68.7,106.3,124.4,237.4,124.4c131.1,0,237.5-55.7,237.5-124.4
			C475.6,56.3,369.3,0.6,238.1,0.6"/>
		<path fill="#6D6F71" d="M238.2,0.7C107,0.7,0.7,56.3,0.7,125c0,68.7,106.3,124.4,237.4,124.4S475.6,193.7,475.6,125
			C475.6,56.3,369.3,0.7,238.2,0.7"/>
		<path fill="#6E7072" d="M238.2,0.7C107.1,0.7,0.8,56.4,0.8,125c0,68.7,106.3,124.3,237.4,124.3c131.1,0,237.4-55.7,237.4-124.3
			C475.6,56.4,369.3,0.7,238.2,0.7"/>
		<path fill="#6F7073" d="M238.2,0.7C107.1,0.7,0.8,56.4,0.8,125c0,68.6,106.3,124.3,237.4,124.3S475.5,193.7,475.5,125
			C475.5,56.4,369.2,0.7,238.2,0.7"/>
		<path fill="#707174" d="M238.2,0.7C107.1,0.7,0.8,56.4,0.8,125c0,68.6,106.3,124.3,237.3,124.3c131.1,0,237.4-55.6,237.4-124.3
			C475.5,56.4,369.2,0.7,238.2,0.7"/>
		<path fill="#717275" d="M238.2,0.8C107.1,0.8,0.9,56.4,0.9,125c0,68.6,106.3,124.3,237.3,124.3c131.1,0,237.3-55.6,237.3-124.3
			C475.5,56.4,369.2,0.8,238.2,0.8"/>
		<path fill="#717375" d="M238.2,0.8C107.1,0.8,0.9,56.4,0.9,125c0,68.6,106.2,124.2,237.3,124.2c131.1,0,237.3-55.6,237.3-124.2
			C475.5,56.4,369.2,0.8,238.2,0.8"/>
		<path fill="#727476" d="M238.2,0.8C107.1,0.8,0.9,56.4,0.9,125c0,68.6,106.2,124.2,237.3,124.2c131,0,237.3-55.6,237.3-124.2
			C475.4,56.4,369.2,0.8,238.2,0.8"/>
		<path fill="#737477" d="M238.2,0.8C107.2,0.8,0.9,56.4,0.9,125c0,68.6,106.2,124.2,237.2,124.2S475.4,193.6,475.4,125
			C475.4,56.4,369.2,0.8,238.2,0.8"/>
		<path fill="#747578" d="M238.2,0.9C107.2,0.9,1,56.5,1,125c0,68.6,106.2,124.2,237.2,124.2c131,0,237.2-55.6,237.2-124.2
			C475.4,56.5,369.2,0.9,238.2,0.9"/>
		<path fill="#747678" d="M238.2,0.9C107.2,0.9,1,56.5,1,125c0,68.5,106.2,124.1,237.2,124.1c131,0,237.2-55.6,237.2-124.1
			C475.4,56.5,369.2,0.9,238.2,0.9"/>
		<path fill="#757779" d="M238.2,0.9C107.2,0.9,1,56.5,1,125c0,68.5,106.2,124.1,237.2,124.1c131,0,237.2-55.6,237.2-124.1
			C475.3,56.5,369.2,0.9,238.2,0.9"/>
		<path fill="#76777A" d="M238.2,0.9C107.2,0.9,1.1,56.5,1.1,125c0,68.5,106.2,124.1,237.1,124.1c131,0,237.2-55.6,237.2-124.1
			C475.3,56.5,369.1,0.9,238.2,0.9"/>
		<path fill="#77787B" d="M238.2,1C107.2,1,1.1,56.5,1.1,125c0,68.5,106.2,124.1,237.1,124.1c131,0,237.1-55.6,237.1-124.1
			C475.3,56.5,369.1,1,238.2,1"/>
		<path fill="#77797C" d="M238.2,1C107.3,1,1.1,56.5,1.1,125c0,68.5,106.1,124,237.1,124s237.1-55.5,237.1-124
			C475.3,56.5,369.1,1,238.2,1"/>
		<path fill="#787A7C" d="M238.2,1C107.3,1,1.1,56.5,1.1,125c0,68.5,106.1,124,237,124c130.9,0,237.1-55.5,237.1-124
			C475.3,56.5,369.1,1,238.2,1"/>
		<path fill="#797B7D" d="M238.2,1C107.3,1,1.2,56.6,1.2,125c0,68.5,106.1,124,237,124c130.9,0,237-55.5,237-124
			C475.2,56.6,369.1,1,238.2,1"/>
		<path fill="#7A7B7E" d="M238.2,1.1c-130.9,0-237,55.5-237,124c0,68.5,106.1,124,237,124c130.9,0,237-55.5,237-124
			C475.2,56.6,369.1,1.1,238.2,1.1"/>
		<path fill="#7A7C7F" d="M238.2,1.1c-130.9,0-237,55.5-237,124c0,68.4,106.1,123.9,237,123.9c130.9,0,237-55.5,237-123.9
			C475.2,56.6,369.1,1.1,238.2,1.1"/>
		<path fill="#7B7D7F" d="M238.2,1.1C107.3,1.1,1.2,56.6,1.2,125.1C1.2,193.5,107.3,249,238.2,249c130.9,0,237-55.5,237-123.9
			C475.2,56.6,369.1,1.1,238.2,1.1"/>
		<path fill="#7C7E80" d="M238.2,1.1C107.4,1.1,1.3,56.6,1.3,125.1c0,68.4,106.1,123.9,236.9,123.9c130.8,0,236.9-55.5,236.9-123.9
			C475.1,56.6,369,1.1,238.2,1.1"/>
		<path fill="#7D7E81" d="M238.2,1.2C107.4,1.2,1.3,56.6,1.3,125.1c0,68.4,106.1,123.9,236.9,123.9s236.9-55.5,236.9-123.9
			C475.1,56.6,369,1.2,238.2,1.2"/>
		<path fill="#7D7F82" d="M238.2,1.2C107.4,1.2,1.3,56.6,1.3,125.1c0,68.4,106.1,123.8,236.9,123.8c130.8,0,236.9-55.5,236.9-123.8
			C475.1,56.6,369,1.2,238.2,1.2"/>
		<path fill="#7E8082" d="M238.2,1.2C107.4,1.2,1.4,56.7,1.4,125.1c0,68.4,106,123.8,236.8,123.8c130.8,0,236.9-55.4,236.9-123.8
			C475.1,56.7,369,1.2,238.2,1.2"/>
		<path fill="#7F8183" d="M238.2,1.2C107.4,1.2,1.4,56.7,1.4,125.1c0,68.4,106,123.8,236.8,123.8C369,248.9,475,193.4,475,125.1
			C475,56.7,369,1.2,238.2,1.2"/>
		<path fill="#808184" d="M238.2,1.3C107.4,1.3,1.4,56.7,1.4,125.1c0,68.4,106,123.8,236.8,123.8C369,248.8,475,193.4,475,125.1
			C475,56.7,369,1.3,238.2,1.3"/>
		<path fill="#808285" d="M238.2,1.3C107.5,1.3,1.4,56.7,1.4,125.1c0,68.3,106,123.7,236.8,123.7C369,248.8,475,193.4,475,125.1
			C475,56.7,369,1.3,238.2,1.3"/>
		<path fill="#818385" d="M238.2,1.3C107.5,1.3,1.5,56.7,1.5,125.1c0,68.3,106,123.7,236.7,123.7C369,248.8,475,193.4,475,125.1
			C475,56.7,369,1.3,238.2,1.3"/>
		<path fill="#828486" d="M238.2,1.3C107.5,1.3,1.5,56.7,1.5,125.1c0,68.3,106,123.7,236.7,123.7S475,193.4,475,125.1
			C475,56.7,369,1.3,238.2,1.3"/>
		<path fill="#828487" d="M238.2,1.4C107.5,1.4,1.5,56.7,1.5,125.1c0,68.3,106,123.7,236.7,123.7s236.7-55.4,236.7-123.7
			C474.9,56.7,368.9,1.4,238.2,1.4"/>
		<path fill="#838588" d="M238.2,1.4C107.5,1.4,1.6,56.8,1.6,125.1c0,68.3,106,123.7,236.7,123.7c130.7,0,236.7-55.4,236.7-123.7
			C474.9,56.8,368.9,1.4,238.2,1.4"/>
		<path fill="#848688" d="M238.2,1.4C107.5,1.4,1.6,56.8,1.6,125.1c0,68.3,106,123.6,236.6,123.6c130.7,0,236.7-55.4,236.7-123.6
			C474.9,56.8,368.9,1.4,238.2,1.4"/>
		<path fill="#858789" d="M238.2,1.4C107.6,1.4,1.6,56.8,1.6,125.1c0,68.3,105.9,123.6,236.6,123.6c130.7,0,236.6-55.3,236.6-123.6
			C474.9,56.8,368.9,1.4,238.2,1.4"/>
		<path fill="#85878A" d="M238.2,1.5C107.6,1.5,1.6,56.8,1.6,125.1c0,68.2,105.9,123.6,236.6,123.6s236.6-55.3,236.6-123.6
			C474.8,56.8,368.9,1.5,238.2,1.5"/>
		<path fill="#86888B" d="M238.2,1.5C107.6,1.5,1.7,56.8,1.7,125.1c0,68.2,105.9,123.6,236.6,123.6c130.6,0,236.6-55.3,236.6-123.6
			C474.8,56.8,368.9,1.5,238.2,1.5"/>
		<path fill="#87898B" d="M238.2,1.5C107.6,1.5,1.7,56.8,1.7,125.1c0,68.2,105.9,123.5,236.5,123.5s236.6-55.3,236.6-123.5
			C474.8,56.8,368.9,1.5,238.2,1.5"/>
		<path fill="#888A8C" d="M238.2,1.5C107.6,1.5,1.7,56.8,1.7,125.1c0,68.2,105.9,123.5,236.5,123.5c130.6,0,236.5-55.3,236.5-123.5
			C474.8,56.8,368.9,1.5,238.2,1.5"/>
		<path fill="#888A8D" d="M238.2,1.6C107.6,1.6,1.8,56.9,1.8,125.1c0,68.2,105.9,123.5,236.5,123.5c130.6,0,236.5-55.3,236.5-123.5
			C474.7,56.9,368.8,1.6,238.2,1.6"/>
		<path fill="#898B8E" d="M238.2,1.6C107.7,1.6,1.8,56.9,1.8,125.1c0,68.2,105.9,123.5,236.5,123.5c130.6,0,236.5-55.3,236.5-123.5
			C474.7,56.9,368.8,1.6,238.2,1.6"/>
		<path fill="#8A8C8E" d="M238.2,1.6C107.7,1.6,1.8,56.9,1.8,125.1c0,68.2,105.9,123.4,236.4,123.4c130.6,0,236.4-55.3,236.4-123.4
			C474.7,56.9,368.8,1.6,238.2,1.6"/>
		<path fill="#8B8D8F" d="M238.2,1.7C107.7,1.7,1.8,56.9,1.8,125.1c0,68.1,105.8,123.4,236.4,123.4c130.6,0,236.4-55.3,236.4-123.4
			C474.7,56.9,368.8,1.7,238.2,1.7"/>
		<path fill="#8B8D90" d="M238.3,1.7C107.7,1.7,1.9,56.9,1.9,125.1c0,68.1,105.8,123.4,236.4,123.4c130.5,0,236.4-55.2,236.4-123.4
			C474.7,56.9,368.8,1.7,238.3,1.7"/>
		<path fill="#8C8E91" d="M238.3,1.7C107.7,1.7,1.9,56.9,1.9,125.1c0,68.1,105.8,123.4,236.4,123.4c130.5,0,236.4-55.2,236.4-123.4
			C474.6,56.9,368.8,1.7,238.3,1.7"/>
		<path fill="#8D8F92" d="M238.3,1.7C107.7,1.7,1.9,56.9,1.9,125.1c0,68.1,105.8,123.3,236.3,123.3c130.5,0,236.4-55.2,236.4-123.3
			C474.6,56.9,368.8,1.7,238.3,1.7"/>
		<path fill="#8E9092" d="M238.3,1.7C107.8,1.7,2,57,2,125.1c0,68.1,105.8,123.3,236.3,123.3c130.5,0,236.3-55.2,236.3-123.3
			C474.6,57,368.8,1.7,238.3,1.7"/>
		<path fill="#8E9093" d="M238.3,1.8C107.8,1.8,2,57,2,125.1c0,68.1,105.8,123.3,236.3,123.3c130.5,0,236.3-55.2,236.3-123.3
			C474.6,57,368.8,1.8,238.3,1.8"/>
		<path fill="#8F9194" d="M238.3,1.8C107.8,1.8,2,57,2,125.1c0,68.1,105.8,123.3,236.3,123.3c130.5,0,236.3-55.2,236.3-123.3
			C474.5,57,368.7,1.8,238.3,1.8"/>
		<path fill="#909295" d="M238.3,1.8C107.8,1.8,2,57,2,125.1c0,68.1,105.8,123.2,236.2,123.2c130.5,0,236.2-55.2,236.2-123.2
			C474.5,57,368.7,1.8,238.3,1.8"/>
		<path fill="#919395" d="M238.3,1.9C107.8,1.9,2.1,57,2.1,125.1c0,68,105.8,123.2,236.2,123.2c130.4,0,236.2-55.2,236.2-123.2
			C474.5,57,368.7,1.9,238.3,1.9"/>
		<path fill="#919396" d="M238.3,1.9C107.8,1.9,2.1,57,2.1,125.1c0,68,105.7,123.2,236.2,123.2c130.4,0,236.2-55.2,236.2-123.2
			C474.5,57,368.7,1.9,238.3,1.9"/>
		<path fill="#929497" d="M238.3,1.9C107.9,1.9,2.1,57,2.1,125.1c0,68,105.7,123.2,236.1,123.2c130.4,0,236.2-55.2,236.2-123.2
			C474.4,57.1,368.7,1.9,238.3,1.9"/>
		<path fill="#939598" d="M238.3,1.9C107.9,1.9,2.2,57.1,2.2,125.1c0,68,105.7,123.1,236.1,123.1s236.1-55.1,236.1-123.1
			C474.4,57.1,368.7,1.9,238.3,1.9"/>
		<path fill="#949698" d="M238.3,2C107.9,2,2.2,57.1,2.2,125.1c0,68,105.7,123.1,236.1,123.1c130.4,0,236.1-55.1,236.1-123.1
			C474.4,57.1,368.7,2,238.3,2"/>
		<path fill="#949699" d="M238.3,2C107.9,2,2.2,57.1,2.2,125.1c0,68,105.7,123.1,236.1,123.1c130.4,0,236.1-55.1,236.1-123.1
			C474.4,57.1,368.7,2,238.3,2"/>
		<path fill="#95979A" d="M238.3,2C107.9,2,2.2,57.1,2.2,125.1c0,68,105.7,123.1,236,123.1c130.4,0,236.1-55.1,236.1-123.1
			C474.4,57.1,368.7,2,238.3,2"/>
		<path fill="#96989B" d="M238.3,2C107.9,2,2.3,57.1,2.3,125.1c0,68,105.7,123,236,123c130.3,0,236-55.1,236-123
			C474.3,57.1,368.6,2,238.3,2"/>
		<path fill="#97999B" d="M238.3,2.1c-130.3,0-236,55.1-236,123c0,67.9,105.7,123,236,123c130.3,0,236-55.1,236-123
			C474.3,57.1,368.6,2.1,238.3,2.1"/>
		<path fill="#979A9C" d="M238.3,2.1c-130.3,0-236,55.1-236,123c0,67.9,105.6,123,236,123c130.3,0,236-55.1,236-123
			C474.3,57.1,368.6,2.1,238.3,2.1"/>
		<path fill="#989A9D" d="M238.3,2.1C108,2.1,2.4,57.2,2.4,125.1c0,67.9,105.6,123,235.9,123c130.3,0,236-55.1,236-123
			C474.3,57.2,368.6,2.1,238.3,2.1"/>
		<path fill="#999B9E" d="M238.3,2.1C108,2.1,2.4,57.2,2.4,125.1C2.4,193,108,248,238.3,248c130.3,0,235.9-55.1,235.9-122.9
			C474.2,57.2,368.6,2.1,238.3,2.1"/>
		<path fill="#9A9C9E" d="M238.3,2.2C108,2.2,2.4,57.2,2.4,125.1C2.4,193,108,248,238.3,248c130.3,0,235.9-55,235.9-122.9
			C474.2,57.2,368.6,2.2,238.3,2.2"/>
		<path fill="#9B9D9F" d="M238.3,2.2C108,2.2,2.4,57.2,2.4,125.1C2.4,193,108,248,238.3,248c130.3,0,235.9-55,235.9-122.9
			C474.2,57.2,368.6,2.2,238.3,2.2"/>
		<path fill="#9B9DA0" d="M238.3,2.2C108.1,2.2,2.5,57.2,2.5,125.1C2.5,192.9,108.1,248,238.3,248c130.2,0,235.9-55,235.9-122.9
			C474.2,57.2,368.6,2.2,238.3,2.2"/>
		<path fill="#9C9EA1" d="M238.3,2.2C108.1,2.2,2.5,57.2,2.5,125.1c0,67.8,105.6,122.9,235.8,122.9c130.2,0,235.8-55,235.8-122.9
			C474.1,57.2,368.5,2.2,238.3,2.2"/>
		<path fill="#9D9FA2" d="M238.3,2.3C108.1,2.3,2.5,57.2,2.5,125.1c0,67.8,105.6,122.8,235.8,122.8c130.2,0,235.8-55,235.8-122.8
			C474.1,57.2,368.5,2.3,238.3,2.3"/>
		<path fill="#9EA0A2" d="M238.3,2.3C108.1,2.3,2.6,57.3,2.6,125.1c0,67.8,105.6,122.8,235.8,122.8c130.2,0,235.8-55,235.8-122.8
			C474.1,57.3,368.5,2.3,238.3,2.3"/>
		<path fill="#9EA1A3" d="M238.3,2.3C108.1,2.3,2.6,57.3,2.6,125.1c0,67.8,105.5,122.8,235.7,122.8c130.2,0,235.8-55,235.8-122.8
			C474.1,57.3,368.5,2.3,238.3,2.3"/>
		<path fill="#9FA1A4" d="M238.3,2.3C108.2,2.3,2.6,57.3,2.6,125.1c0,67.8,105.5,122.8,235.7,122.8c130.2,0,235.7-55,235.7-122.8
			C474,57.3,368.5,2.3,238.3,2.3"/>
		<path fill="#A0A2A5" d="M238.3,2.4C108.2,2.4,2.6,57.3,2.6,125.1c0,67.8,105.5,122.7,235.7,122.7c130.2,0,235.7-55,235.7-122.7
			C474,57.3,368.5,2.4,238.3,2.4"/>
		<path fill="#A1A3A5" d="M238.3,2.4C108.2,2.4,2.7,57.3,2.7,125.1c0,67.8,105.5,122.7,235.7,122.7c130.1,0,235.7-54.9,235.7-122.7
			C474,57.3,368.5,2.4,238.3,2.4"/>
		<path fill="#A2A4A6" d="M238.3,2.4C108.2,2.4,2.7,57.3,2.7,125.1c0,67.7,105.5,122.7,235.6,122.7c130.1,0,235.6-54.9,235.6-122.7
			C474,57.3,368.5,2.4,238.3,2.4"/>
		<path fill="#A2A4A7" d="M238.3,2.4C108.2,2.4,2.7,57.4,2.7,125.1c0,67.7,105.5,122.7,235.6,122.7c130.1,0,235.6-54.9,235.6-122.7
			C474,57.4,368.4,2.4,238.3,2.4"/>
		<path fill="#A3A5A8" d="M238.3,2.5C108.2,2.5,2.8,57.4,2.8,125.1c0,67.7,105.5,122.6,235.6,122.6c130.1,0,235.6-54.9,235.6-122.6
			C473.9,57.4,368.4,2.5,238.3,2.5"/>
		<path fill="#A4A6A9" d="M238.3,2.5C108.3,2.5,2.8,57.4,2.8,125.1c0,67.7,105.5,122.6,235.6,122.6c130.1,0,235.6-54.9,235.6-122.6
			C473.9,57.4,368.4,2.5,238.3,2.5"/>
		<path fill="#A5A7A9" d="M238.3,2.5C108.3,2.5,2.8,57.4,2.8,125.1c0,67.7,105.5,122.6,235.5,122.6s235.5-54.9,235.5-122.6
			C473.9,57.4,368.4,2.5,238.3,2.5"/>
		<path fill="#A5A8AA" d="M238.3,2.5C108.3,2.5,2.8,57.4,2.8,125.1c0,67.7,105.4,122.6,235.5,122.6c130.1,0,235.5-54.9,235.5-122.6
			C473.9,57.4,368.4,2.5,238.3,2.5"/>
		<path fill="#A6A8AB" d="M238.3,2.6C108.3,2.6,2.9,57.4,2.9,125.1c0,67.7,105.4,122.5,235.5,122.5c130,0,235.5-54.9,235.5-122.5
			C473.8,57.4,368.4,2.6,238.3,2.6"/>
		<path fill="#A7A9AC" d="M238.3,2.6C108.3,2.6,2.9,57.4,2.9,125.1c0,67.7,105.4,122.5,235.4,122.5c130,0,235.5-54.9,235.5-122.5
			C473.8,57.4,368.4,2.6,238.3,2.6"/>
		<path fill="#A8AAAD" d="M238.3,2.6C108.3,2.6,2.9,57.4,2.9,125.1c0,67.6,105.4,122.5,235.4,122.5c130,0,235.4-54.8,235.4-122.5
			C473.8,57.4,368.4,2.6,238.3,2.6"/>
		<path fill="#A9ABAD" d="M238.3,2.6C108.4,2.6,3,57.5,3,125.1c0,67.6,105.4,122.5,235.4,122.5c130,0,235.4-54.8,235.4-122.5
			C473.8,57.5,368.4,2.6,238.3,2.6"/>
		<path fill="#A9ACAE" d="M238.4,2.7C108.4,2.7,3,57.5,3,125.1c0,67.6,105.4,122.4,235.4,122.4c130,0,235.4-54.8,235.4-122.4
			C473.7,57.5,368.3,2.7,238.4,2.7"/>
		<path fill="#AAACAF" d="M238.4,2.7C108.4,2.7,3,57.5,3,125.1c0,67.6,105.4,122.4,235.3,122.4c130,0,235.4-54.8,235.4-122.4
			C473.7,57.5,368.3,2.7,238.4,2.7"/>
		<path fill="#ABADB0" d="M238.4,2.7C108.4,2.7,3,57.5,3,125.1c0,67.6,105.4,122.4,235.3,122.4c130,0,235.3-54.8,235.3-122.4
			C473.7,57.5,368.3,2.7,238.4,2.7"/>
		<path fill="#ACAEB0" d="M238.4,2.7C108.4,2.7,3.1,57.5,3.1,125.1c0,67.6,105.3,122.4,235.3,122.4c129.9,0,235.3-54.8,235.3-122.4
			C473.7,57.5,368.3,2.7,238.4,2.7"/>
		<path fill="#ADAFB1" d="M238.4,2.8C108.4,2.8,3.1,57.5,3.1,125.1c0,67.6,105.3,122.3,235.3,122.3c129.9,0,235.3-54.8,235.3-122.3
			C473.7,57.5,368.3,2.8,238.4,2.8"/>
		<path fill="#AEB0B2" d="M238.4,2.8C108.5,2.8,3.1,57.5,3.1,125.1c0,67.5,105.3,122.3,235.2,122.3c129.9,0,235.3-54.8,235.3-122.3
			C473.6,57.5,368.3,2.8,238.4,2.8"/>
		<path fill="#AEB0B3" d="M238.4,2.8C108.5,2.8,3.2,57.6,3.2,125.1c0,67.5,105.3,122.3,235.2,122.3c129.9,0,235.2-54.8,235.2-122.3
			C473.6,57.6,368.3,2.8,238.4,2.8"/>
		<path fill="#AFB1B4" d="M238.4,2.8C108.5,2.8,3.2,57.6,3.2,125.1c0,67.5,105.3,122.3,235.2,122.3c129.9,0,235.2-54.7,235.2-122.3
			C473.6,57.6,368.3,2.8,238.4,2.8"/>
		<path fill="#B0B2B4" d="M238.4,2.9C108.5,2.9,3.2,57.6,3.2,125.1c0,67.5,105.3,122.2,235.2,122.2c129.9,0,235.2-54.7,235.2-122.2
			C473.6,57.6,368.2,2.9,238.4,2.9"/>
		<path fill="#B1B3B5" d="M238.4,2.9C108.5,2.9,3.2,57.6,3.2,125.1c0,67.5,105.3,122.2,235.1,122.2c129.9,0,235.2-54.7,235.2-122.2
			C473.5,57.6,368.2,2.9,238.4,2.9"/>
		<path fill="#B2B4B6" d="M238.4,2.9C108.5,2.9,3.3,57.6,3.3,125.1c0,67.5,105.3,122.2,235.1,122.2s235.1-54.7,235.1-122.2
			C473.5,57.6,368.2,2.9,238.4,2.9"/>
		<path fill="#B2B4B7" d="M238.4,2.9C108.6,2.9,3.3,57.6,3.3,125.1c0,67.5,105.3,122.2,235.1,122.2c129.8,0,235.1-54.7,235.1-122.2
			C473.5,57.6,368.2,2.9,238.4,2.9"/>
		<path fill="#B3B5B8" d="M238.4,3C108.6,3,3.3,57.7,3.3,125.1c0,67.4,105.2,122.1,235.1,122.1c129.8,0,235.1-54.7,235.1-122.1
			C473.5,57.7,368.2,3,238.4,3"/>
		<path fill="#B4B6B8" d="M238.4,3C108.6,3,3.3,57.7,3.3,125.1c0,67.4,105.2,122.1,235,122.1c129.8,0,235.1-54.7,235.1-122.1
			C473.4,57.7,368.2,3,238.4,3"/>
		<path fill="#B5B7B9" d="M238.4,3C108.6,3,3.4,57.7,3.4,125.1c0,67.4,105.2,122.1,235,122.1c129.8,0,235-54.7,235-122.1
			C473.4,57.7,368.2,3,238.4,3"/>
		<path fill="#B6B8BA" d="M238.4,3C108.6,3,3.4,57.7,3.4,125.1c0,67.4,105.2,122.1,235,122.1c129.8,0,235-54.7,235-122.1
			C473.4,57.7,368.2,3,238.4,3"/>
		<path fill="#B7B9BB" d="M238.4,3.1c-129.8,0-235,54.6-235,122.1c0,67.4,105.2,122,235,122s235-54.7,235-122
			C473.4,57.7,368.2,3.1,238.4,3.1"/>
		<path fill="#B7B9BC" d="M238.4,3.1C108.7,3.1,3.5,57.7,3.5,125.1c0,67.4,105.2,122,234.9,122c129.7,0,235-54.6,235-122
			C473.3,57.7,368.1,3.1,238.4,3.1"/>
		<path fill="#B8BABC" d="M238.4,3.1C108.7,3.1,3.5,57.7,3.5,125.1c0,67.4,105.2,122,234.9,122c129.7,0,234.9-54.6,234.9-122
			C473.3,57.7,368.1,3.1,238.4,3.1"/>
		<path fill="#B9BBBD" d="M238.4,3.1C108.7,3.1,3.5,57.8,3.5,125.1c0,67.4,105.2,122,234.9,122c129.7,0,234.9-54.6,234.9-122
			C473.3,57.8,368.1,3.1,238.4,3.1"/>
		<path fill="#BABCBE" d="M238.4,3.2C108.7,3.2,3.5,57.8,3.5,125.1c0,67.3,105.2,121.9,234.9,121.9c129.7,0,234.9-54.6,234.9-121.9
			C473.3,57.8,368.1,3.2,238.4,3.2"/>
		<path fill="#BBBDBF" d="M238.4,3.2C108.7,3.2,3.6,57.8,3.6,125.1C3.6,192.5,108.7,247,238.4,247c129.7,0,234.8-54.6,234.8-121.9
			C473.3,57.8,368.1,3.2,238.4,3.2"/>
		<path fill="#BCBDC0" d="M238.4,3.2C108.7,3.2,3.6,57.8,3.6,125.1C3.6,192.4,108.7,247,238.4,247c129.7,0,234.8-54.6,234.8-121.9
			C473.2,57.8,368.1,3.2,238.4,3.2"/>
		<path fill="#BCBEC0" d="M238.4,3.2C108.8,3.2,3.6,57.8,3.6,125.1C3.6,192.4,108.8,247,238.4,247c129.7,0,234.8-54.6,234.8-121.9
			C473.2,57.8,368.1,3.2,238.4,3.2"/>
		<path fill="#BDBFC1" d="M238.4,3.3C108.8,3.3,3.7,57.8,3.7,125.1C3.7,192.4,108.8,247,238.4,247c129.6,0,234.8-54.6,234.8-121.9
			C473.2,57.8,368.1,3.3,238.4,3.3"/>
		<path fill="#BEC0C2" d="M238.4,3.3C108.8,3.3,3.7,57.8,3.7,125.1C3.7,192.4,108.8,247,238.4,247c129.6,0,234.7-54.6,234.7-121.8
			C473.2,57.8,368,3.3,238.4,3.3"/>
		<path fill="#BFC1C3" d="M238.4,3.3C108.8,3.3,3.7,57.9,3.7,125.1c0,67.3,105.1,121.8,234.7,121.8c129.6,0,234.7-54.5,234.7-121.8
			C473.1,57.9,368,3.3,238.4,3.3"/>
		<path fill="#C0C2C4" d="M238.4,3.4C108.8,3.4,3.7,57.9,3.7,125.1c0,67.2,105.1,121.8,234.7,121.8c129.6,0,234.7-54.5,234.7-121.8
			C473.1,57.9,368,3.4,238.4,3.4"/>
		<path fill="#C1C2C4" d="M238.4,3.4C108.8,3.4,3.8,57.9,3.8,125.1c0,67.2,105.1,121.8,234.6,121.8c129.6,0,234.7-54.5,234.7-121.8
			C473.1,57.9,368,3.4,238.4,3.4"/>
		<path fill="#C1C3C5" d="M238.4,3.4C108.9,3.4,3.8,57.9,3.8,125.1c0,67.2,105.1,121.7,234.6,121.7c129.6,0,234.6-54.5,234.6-121.7
			C473.1,57.9,368,3.4,238.4,3.4"/>
		<path fill="#C2C4C6" d="M238.4,3.4C108.9,3.4,3.8,57.9,3.8,125.1c0,67.2,105,121.7,234.6,121.7C368,246.8,473,192.3,473,125.1
			C473,57.9,368,3.4,238.4,3.4"/>
		<path fill="#C3C5C7" d="M238.4,3.5C108.9,3.5,3.9,57.9,3.9,125.1c0,67.2,105,121.7,234.6,121.7C368,246.8,473,192.3,473,125.1
			C473,57.9,368,3.5,238.4,3.5"/>
		<path fill="#C4C6C8" d="M238.4,3.5C108.9,3.5,3.9,57.9,3.9,125.1c0,67.2,105,121.7,234.5,121.7C368,246.8,473,192.3,473,125.1
			C473,57.9,368,3.5,238.4,3.5"/>
		<path fill="#C5C6C8" d="M238.4,3.5C108.9,3.5,3.9,58,3.9,125.1c0,67.2,105,121.6,234.5,121.6C368,246.8,473,192.3,473,125.1
			C473,58,368,3.5,238.4,3.5"/>
		<path fill="#C5C7C9" d="M238.4,3.5C108.9,3.5,4,58,4,125.1c0,67.2,105,121.6,234.5,121.6c129.5,0,234.5-54.5,234.5-121.6
			C472.9,58,367.9,3.5,238.4,3.5"/>
		<path fill="#C5C7C9" d="M238.4,3.6C109,3.6,4,58,4,125.1c0,67.1,105,121.6,234.5,121.6c129.5,0,234.5-54.4,234.5-121.6
			C472.9,58,367.9,3.6,238.4,3.6"/>
		<path fill="#C7C9CB" d="M238.4,3.6C109,3.6,4,58,4,125.1c0,67.1,105,121.6,234.4,121.6s234.5-54.4,234.5-121.6
			C472.9,58,367.9,3.6,238.4,3.6"/>
		<path fill="#C8CACC" d="M238.5,3.6C109,3.6,4,58,4,125.1c0,67.1,105,121.5,234.4,121.5s234.4-54.4,234.4-121.5
			C472.9,58,367.9,3.6,238.5,3.6"/>
		<path fill="#C9CBCC" d="M238.5,3.6C109,3.6,4.1,58,4.1,125.1c0,67.1,104.9,121.5,234.4,121.5c129.4,0,234.4-54.4,234.4-121.5
			C472.9,58,367.9,3.6,238.5,3.6"/>
		<path fill="#CACBCD" d="M238.5,3.7C109,3.7,4.1,58,4.1,125.1c0,67.1,104.9,121.5,234.4,121.5c129.4,0,234.4-54.4,234.4-121.5
			C472.8,58,367.9,3.7,238.5,3.7"/>
		<path fill="#CBCCCE" d="M238.5,3.7C109,3.7,4.1,58.1,4.1,125.1c0,67.1,104.9,121.5,234.3,121.5c129.4,0,234.4-54.4,234.4-121.5
			C472.8,58.1,367.9,3.7,238.5,3.7"/>
		<path fill="#CBCDCF" d="M238.5,3.7C109.1,3.7,4.1,58.1,4.1,125.1c0,67.1,104.9,121.4,234.3,121.4c129.4,0,234.3-54.4,234.3-121.4
			C472.8,58.1,367.9,3.7,238.5,3.7"/>
		<path fill="#CCCED0" d="M238.5,3.7C109.1,3.7,4.2,58.1,4.2,125.1c0,67,104.9,121.4,234.3,121.4c129.4,0,234.3-54.4,234.3-121.4
			C472.8,58.1,367.9,3.7,238.5,3.7"/>
		<path fill="#CDCFD0" d="M238.5,3.8C109.1,3.8,4.2,58.1,4.2,125.1c0,67,104.9,121.4,234.3,121.4c129.4,0,234.3-54.4,234.3-121.4
			C472.7,58.1,367.8,3.8,238.5,3.8"/>
		<path fill="#CECFD1" d="M238.5,3.8C109.1,3.8,4.2,58.1,4.2,125.2c0,67,104.9,121.4,234.2,121.4c129.4,0,234.3-54.4,234.3-121.4
			C472.7,58.1,367.8,3.8,238.5,3.8"/>
		<path fill="#CFD0D2" d="M238.5,3.8C109.1,3.8,4.3,58.1,4.3,125.1c0,67,104.9,121.3,234.2,121.3c129.3,0,234.2-54.3,234.2-121.3
			C472.7,58.1,367.8,3.8,238.5,3.8"/>
		<path fill="#CFD0D2" d="M238.5,3.8C109.1,3.8,4.3,58.1,4.3,125.2c0,67,104.9,121.3,234.2,121.3c129.3,0,234.2-54.3,234.2-121.3
			C472.7,58.1,367.8,3.8,238.5,3.8"/>
		<path fill="#D0D1D3" d="M238.5,3.9C109.2,3.9,4.3,58.2,4.3,125.2c0,67,104.8,121.3,234.2,121.3c129.3,0,234.2-54.3,234.2-121.3
			C472.7,58.2,367.8,3.9,238.5,3.9"/>
		<path fill="#D0D2D3" d="M238.5,3.9C109.2,3.9,4.3,58.2,4.3,125.2c0,67,104.8,121.3,234.1,121.3c129.3,0,234.2-54.3,234.2-121.3
			C472.6,58.2,367.8,3.9,238.5,3.9"/>
		<path fill="#D2D3D5" d="M238.5,3.9C109.2,3.9,4.4,58.2,4.4,125.2c0,67,104.8,121.2,234.1,121.2s234.1-54.3,234.1-121.2
			C472.6,58.2,367.8,3.9,238.5,3.9"/>
		<path fill="#D3D4D6" d="M238.5,3.9C109.2,3.9,4.4,58.2,4.4,125.2c0,66.9,104.8,121.2,234.1,121.2c129.3,0,234.1-54.3,234.1-121.2
			C472.6,58.2,367.8,3.9,238.5,3.9"/>
		<path fill="#D4D5D7" d="M238.5,4C109.2,4,4.4,58.2,4.4,125.2c0,66.9,104.8,121.2,234.1,121.2c129.3,0,234.1-54.3,234.1-121.2
			C472.6,58.2,367.7,4,238.5,4"/>
		<path fill="#D5D6D7" d="M238.5,4C109.2,4,4.5,58.2,4.5,125.2c0,66.9,104.8,121.2,234,121.2c129.3,0,234-54.3,234-121.2
			C472.5,58.2,367.7,4,238.5,4"/>
		<path fill="#D5D7D8" d="M238.5,4C109.3,4,4.5,58.2,4.5,125.2c0,66.9,104.8,121.1,234,121.1c129.2,0,234-54.2,234-121.1
			C472.5,58.2,367.7,4,238.5,4"/>
		<path fill="#D6D7D9" d="M238.5,4C109.3,4,4.5,58.3,4.5,125.2c0,66.9,104.8,121.1,234,121.1c129.2,0,234-54.2,234-121.1
			C472.5,58.3,367.7,4,238.5,4"/>
		<path fill="#D7D8DA" d="M238.5,4.1c-129.2,0-234,54.2-234,121.1c0,66.9,104.8,121.1,234,121.1c129.2,0,234-54.2,234-121.1
			C472.5,58.3,367.7,4.1,238.5,4.1"/>
		<path fill="#D8D9DB" d="M238.5,4.1C109.3,4.1,4.6,58.3,4.6,125.2c0,66.9,104.7,121.1,233.9,121.1c129.2,0,233.9-54.2,233.9-121.1
			C472.4,58.3,367.7,4.1,238.5,4.1"/>
		<path fill="#D8D9DB" d="M238.5,4.1C109.3,4.1,4.6,58.3,4.6,125.2c0,66.8,104.7,121,233.9,121c129.2,0,233.9-54.2,233.9-121
			C472.4,58.3,367.7,4.1,238.5,4.1"/>
		<path fill="#D9DADB" d="M238.5,4.1C109.3,4.1,4.6,58.3,4.6,125.2c0,66.8,104.7,121,233.9,121c129.2,0,233.9-54.2,233.9-121
			C472.4,58.3,367.7,4.1,238.5,4.1"/>
		<path fill="#D9DBDC" d="M238.5,4.2C109.4,4.2,4.7,58.3,4.7,125.2c0,66.8,104.7,121,233.8,121c129.1,0,233.9-54.2,233.9-121
			C472.4,58.3,367.7,4.2,238.5,4.2"/>
		<path fill="#DADCDD" d="M238.5,4.2C109.4,4.2,4.7,58.3,4.7,125.2c0,66.8,104.7,121,233.8,121c129.1,0,233.8-54.2,233.8-121
			C472.3,58.3,367.6,4.2,238.5,4.2"/>
		<path fill="#DBDCDE" d="M238.5,4.2C109.4,4.2,4.7,58.4,4.7,125.2c0,66.8,104.7,121,233.8,121s233.8-54.2,233.8-121
			C472.3,58.4,367.6,4.2,238.5,4.2"/>
		<path fill="#DDDEDF" d="M238.5,4.2C109.4,4.2,4.7,58.4,4.7,125.2c0,66.8,104.7,120.9,233.8,120.9c129.1,0,233.8-54.2,233.8-120.9
			C472.3,58.4,367.6,4.2,238.5,4.2"/>
		<path fill="#DEDFE0" d="M238.5,4.3C109.4,4.3,4.8,58.4,4.8,125.2c0,66.8,104.7,120.9,233.7,120.9c129.1,0,233.8-54.1,233.8-120.9
			C472.3,58.4,367.6,4.3,238.5,4.3"/>
		<path fill="#DEE0E1" d="M238.5,4.3C109.4,4.3,4.8,58.4,4.8,125.2C4.8,191.9,109.4,246,238.5,246c129.1,0,233.7-54.1,233.7-120.9
			C472.3,58.4,367.6,4.3,238.5,4.3"/>
		<path fill="#DFE0E2" d="M238.5,4.3C109.5,4.3,4.8,58.4,4.8,125.2C4.8,191.9,109.5,246,238.5,246c129.1,0,233.7-54.1,233.7-120.9
			C472.2,58.4,367.6,4.3,238.5,4.3"/>
		<path fill="#E0E1E2" d="M238.5,4.3C109.5,4.3,4.9,58.4,4.9,125.2C4.9,191.9,109.5,246,238.5,246c129.1,0,233.7-54.1,233.7-120.8
			C472.2,58.4,367.6,4.3,238.5,4.3"/>
		<path fill="#E1E2E3" d="M238.5,4.4C109.5,4.4,4.9,58.4,4.9,125.2C4.9,191.9,109.5,246,238.5,246c129,0,233.7-54.1,233.7-120.8
			C472.2,58.4,367.6,4.4,238.5,4.4"/>
		<path fill="#E1E2E3" d="M238.5,4.4C109.5,4.4,4.9,58.5,4.9,125.2C4.9,191.9,109.5,246,238.5,246c129,0,233.6-54.1,233.6-120.8
			C472.2,58.5,367.5,4.4,238.5,4.4"/>
		<path fill="#E2E3E4" d="M238.5,4.4C109.5,4.4,4.9,58.5,4.9,125.2c0,66.7,104.6,120.8,233.6,120.8c129,0,233.6-54.1,233.6-120.8
			C472.1,58.5,367.5,4.4,238.5,4.4"/>
		<path fill="#E3E4E5" d="M238.5,4.4C109.5,4.4,5,58.5,5,125.2c0,66.7,104.6,120.7,233.6,120.7c129,0,233.6-54.1,233.6-120.7
			C472.1,58.5,367.5,4.4,238.5,4.4"/>
		<path fill="#E3E4E5" d="M238.5,4.5C109.6,4.5,5,58.5,5,125.2c0,66.7,104.6,120.7,233.5,120.7c129,0,233.6-54.1,233.6-120.7
			C472.1,58.5,367.5,4.5,238.5,4.5"/>
		<path fill="#E4E5E6" d="M238.5,4.5C109.6,4.5,5,58.5,5,125.2c0,66.6,104.6,120.7,233.5,120.7c129,0,233.5-54,233.5-120.7
			C472.1,58.5,367.5,4.5,238.5,4.5"/>
		<path fill="#E5E6E7" d="M238.5,4.5C109.6,4.5,5.1,58.5,5.1,125.2c0,66.6,104.5,120.7,233.5,120.7c128.9,0,233.5-54,233.5-120.7
			C472,58.5,367.5,4.5,238.5,4.5"/>
		<path fill="#E7E8E9" d="M238.5,4.5C109.6,4.5,5.1,58.5,5.1,125.2c0,66.6,104.5,120.6,233.5,120.6c128.9,0,233.5-54,233.5-120.6
			C472,58.5,367.5,4.5,238.5,4.5"/>
	</g>
	<g>
		<defs>
			<path id="SVGID_1_" d="M9.3,125c0,63.6,102.4,115.2,228.7,115.2c126.3,0,228.8-51.6,228.8-115.2c0-63.6-102.4-115.2-228.8-115.2
				C111.7,9.8,9.3,61.4,9.3,125"/>
		</defs>
		<clipPath id="SVGID_2_">
			<use xlink:href="#SVGID_1_"  overflow="visible"/>
		</clipPath>
		
			<linearGradient id="SVGID_3_" gradientUnits="userSpaceOnUse" x1="-738.5889" y1="557.9211" x2="-734.6497" y2="557.9211" gradientTransform="matrix(30.5259 65.463 -65.463 30.5259 59247.2422 31315.2578)">
			<stop  offset="0" style="stop-color:#008948"/>
			<stop  offset="0.3764" style="stop-color:#008948"/>
			<stop  offset="0.5955" style="stop-color:#004E25"/>
			<stop  offset="1" style="stop-color:#000000"/>
		</linearGradient>
		<polygon clip-path="url(#SVGID_2_)" fill="url(#SVGID_3_)" points="385.1,-165.4 555.1,199 91.1,415.4 -78.9,51 		"/>
	</g>
	<g>
		<path fill="none" stroke="#004E25" stroke-width="2.9504" d="M238.1,23.6c-118.4,0-214.4,45.9-214.4,102.4s96,102.4,214.4,102.4
			c118.4,0,214.4-45.9,214.4-102.4S356.5,23.6,238.1,23.6"/>
		<path fill="none" stroke="#F5F0CC" stroke-width="5.5897" d="M238.1,17.6C116.5,17.6,18,65.8,18,125.2
			c0,59.4,98.6,107.5,220.1,107.5c121.6,0,220.2-48.2,220.2-107.5C458.2,65.8,359.7,17.6,238.1,17.6"/>
	</g>
	<g>
		<defs>
			<polygon id="SVGID_4_" points="337.5,79.9 333.2,93 356.4,93 329.9,102.6 328.1,107.9 369,93.9 373.5,79.9 			"/>
		</defs>
		<clipPath id="SVGID_5_">
			<use xlink:href="#SVGID_4_"  overflow="visible"/>
		</clipPath>
		
			<linearGradient id="SVGID_6_" gradientUnits="userSpaceOnUse" x1="-734.5125" y1="553.9786" x2="-730.5733" y2="553.9786" gradientTransform="matrix(23.6597 50.7384 -50.7384 23.6597 45805.0312 24186.0469)">
			<stop  offset="0" style="stop-color:#004E25"/>
			<stop  offset="1" style="stop-color:#000000"/>
		</linearGradient>
		<polygon clip-path="url(#SVGID_5_)" fill="url(#SVGID_6_)" points="365.4,62.5 384.3,102.9 336.2,125.3 317.4,84.9 		"/>
	</g>
	<g>
		<defs>
			<path id="SVGID_7_" d="M147.9,102C147.9,101.9,147.9,101.9,147.9,102L147.9,102z M127,57.5c2.5,1.3,0.3,6.2,0.3,6.2
				s-16.2,47.2-17.3,49.6c-1.1,2.4-2,2.7-2,2.7h35l4.9-13.9c-0.5,1.3-3.8,0.9-3.8,0.9h-14.6c0,0,13.6-37.9,14.7-40.7
				c1.6-4.2,2.7-4.7,3-4.7H127z M147.1,57.5h0.1C147.2,57.5,147.2,57.5,147.1,57.5C147.2,57.5,147.2,57.5,147.1,57.5"/>
		</defs>
		<clipPath id="SVGID_8_">
			<use xlink:href="#SVGID_7_"  overflow="visible"/>
		</clipPath>
		
			<linearGradient id="SVGID_9_" gradientUnits="userSpaceOnUse" x1="-740.479" y1="561.2396" x2="-736.5399" y2="561.2396" gradientTransform="matrix(45.6193 97.8309 -97.8309 45.6193 88877.8203 47060.4883)">
			<stop  offset="0" style="stop-color:#004E25"/>
			<stop  offset="1" style="stop-color:#000000"/>
		</linearGradient>
		<polygon clip-path="url(#SVGID_8_)" fill="url(#SVGID_9_)" points="140.8,42.2 170.3,105.4 115.1,131.2 85.6,67.9 		"/>
	</g>
	<g>
		<defs>
			<path id="SVGID_10_" d="M255.7,61c-0.6,1.5-9.6,26.7-9.6,26.7l-3.5-30.1h-17.1c0,0,0.9,1.5,0.3,3.1c-0.5,1.3-18.1,51.9-18.1,51.9
				s-1.1,3.2-2.1,3.2h16.5c0,0-1.1-1.7-0.4-3.7c1-2.7,9.7-27.6,9.7-27.6l3.8,31.3h14.9l19.6-55.6c0,0,0.8-2.6,1.9-2.6l-15.9,0
				C255.8,57.6,256.3,59.5,255.7,61"/>
		</defs>
		<clipPath id="SVGID_11_">
			<use xlink:href="#SVGID_10_"  overflow="visible"/>
		</clipPath>
		
			<linearGradient id="SVGID_12_" gradientUnits="userSpaceOnUse" x1="-740.1948" y1="559.8655" x2="-736.2556" y2="559.8655" gradientTransform="matrix(40.7155 87.3146 -87.3146 40.7155 79265.3594 41931.7422)">
			<stop  offset="0" style="stop-color:#004E25"/>
			<stop  offset="1" style="stop-color:#000000"/>
		</linearGradient>
		<polygon clip-path="url(#SVGID_11_)" fill="url(#SVGID_12_)" points="259.9,32.3 294,105.4 217.4,141.1 183.3,68 		"/>
	</g>
	<g>
		<defs>
			<path id="SVGID_13_" d="M294.5,70.1h4.2c0,0,11-0.7,3.1,19.3c-4.8,12.2-11.9,13.1-15.7,13.1c-2.5,0-2.6,0-2.6,0L294.5,70.1z
				 M299.9,57.6h-18.8c0,0,1.4,2.4-0.4,7.8c-1.8,5.5-16.2,46-16.2,46s-1.1,3.8-2.7,4.5l22.6,0c0,0,27.4,1.1,35.8-29
				c0,0,10.6-29.4-19.9-29.4C300.2,57.6,300,57.6,299.9,57.6"/>
		</defs>
		<clipPath id="SVGID_14_">
			<use xlink:href="#SVGID_13_"  overflow="visible"/>
		</clipPath>
		
			<linearGradient id="SVGID_15_" gradientUnits="userSpaceOnUse" x1="-739.5831" y1="558.6947" x2="-735.6439" y2="558.6947" gradientTransform="matrix(36.6467 78.589 -78.589 36.6467 71284.8438 37688.9297)">
			<stop  offset="0" style="stop-color:#004E25"/>
			<stop  offset="1" style="stop-color:#000000"/>
		</linearGradient>
		<polygon clip-path="url(#SVGID_14_)" fill="url(#SVGID_15_)" points="318.5,31.1 353.6,106.4 274.1,143.5 239,68.2 		"/>
	</g>
	<g>
		<defs>
			<polygon id="SVGID_16_" points="87.4,148.9 82.9,162.9 118.9,162.9 123.2,149.8 100,149.8 126.5,140.2 128.3,134.9 			"/>
		</defs>
		<clipPath id="SVGID_17_">
			<use xlink:href="#SVGID_16_"  overflow="visible"/>
		</clipPath>
		
			<linearGradient id="SVGID_18_" gradientUnits="userSpaceOnUse" x1="-733.1663" y1="557.2513" x2="-729.2272" y2="557.2513" gradientTransform="matrix(23.6606 50.7403 -50.7403 23.6606 45761.1602 24236.5371)">
			<stop  offset="0" style="stop-color:#004E25"/>
			<stop  offset="1" style="stop-color:#000000"/>
		</linearGradient>
		<polygon clip-path="url(#SVGID_17_)" fill="url(#SVGID_18_)" points="120.2,117.5 139,157.9 91,180.3 72.2,139.9 		"/>
	</g>
	<g>
		<defs>
			<path id="SVGID_19_" d="M159.9,142.1c0,0,2.1,0,3.9,0c8.4,0,5.4,6.6,5.4,6.6c-2.6,5.8-9.5,5.1-9.5,5.1h-3.6L159.9,142.1z
				 M169.3,128.7H146c1.7,2,0.4,6.1,0.4,6.1s-14.5,43.3-15.6,46.6c-1.1,3.3-3.2,5.7-3.2,5.7H146c-0.6,0-0.6-1.9-0.6-1.9l6.6-18.3
				c0,0,8.2,16.9,8.8,18.1c0.6,1.2,0.3,2.2,0.3,2.2h19.7c-1.9,0-3.8-3.7-3.8-3.7l-9.8-18.4c13.7,0,18.1-14.2,18.1-14.2
				c6.4-21.5-13.9-22-15.9-22C169.3,128.7,169.3,128.7,169.3,128.7"/>
		</defs>
		<clipPath id="SVGID_20_">
			<use xlink:href="#SVGID_19_"  overflow="visible"/>
		</clipPath>
		
			<linearGradient id="SVGID_21_" gradientUnits="userSpaceOnUse" x1="-738.6526" y1="560.033" x2="-734.7134" y2="560.033" gradientTransform="matrix(36.7057 78.7157 -78.7157 36.7057 71377.6641 37791.9727)">
			<stop  offset="0" style="stop-color:#004E25"/>
			<stop  offset="1" style="stop-color:#000000"/>
		</linearGradient>
		<polygon clip-path="url(#SVGID_20_)" fill="url(#SVGID_21_)" points="180.3,104.1 214.1,176.6 139,211.7 105.1,139.1 		"/>
	</g>
	<g>
		<defs>
			<path id="SVGID_22_" d="M350,187.3L350,187.3C350,187.3,350,187.3,350,187.3 M363.6,142.4h5.1c0,0,6.2-0.2,3.7,6.5
				c-2.1,5.6-9,5.1-9,5.1h-3.6L363.6,142.4z M373.1,128.9h-23.1c1.7,2,0.4,6.1,0.4,6.1s-15.1,43.5-16.2,46.8
				c-1.1,3.4-3.3,5.5-3.3,5.5l19.2,0c-1.3,0-0.4-3.6-0.4-3.6l5.9-16.7c0,0,8,16.9,8.5,18.1c0.6,1.2,0.3,2.2,0.3,2.2h20.4
				c-1.9,0-3.9-3.7-3.9-3.7l-9.8-18.4c13.7,0,17.9-13.7,17.9-13.7c6.6-21.6-11.9-22.6-15.3-22.6
				C373.2,128.9,373.1,128.9,373.1,128.9"/>
		</defs>
		<clipPath id="SVGID_23_">
			<use xlink:href="#SVGID_22_"  overflow="visible"/>
		</clipPath>
		
			<linearGradient id="SVGID_24_" gradientUnits="userSpaceOnUse" x1="-739.7441" y1="558.4545" x2="-735.8049" y2="558.4545" gradientTransform="matrix(36.7273 78.762 -78.762 36.7273 71448.9141 37765.5352)">
			<stop  offset="0" style="stop-color:#004E25"/>
			<stop  offset="1" style="stop-color:#000000"/>
		</linearGradient>
		<polygon clip-path="url(#SVGID_23_)" fill="url(#SVGID_24_)" points="383.9,104.1 417.8,176.9 342.3,212.1 308.4,139.3 		"/>
	</g>
	<g>
		<defs>
			<path id="SVGID_25_" d="M211,174.7c-6.9-1.3-5.7-12.5-4.6-17.7c2.4-11.3,8.5-16.7,13-16.2c1.5,0.2,9.6,0.3,5.2,18.8
				c-2.6,11-7.4,15.2-12.1,15.2C212,174.9,211.5,174.8,211,174.7 M189.1,159.2c-2.8,16.3,6,29.4,20.6,29.4
				c20.3,0,32.5-20.9,32.5-35.9c0-15.7-6.2-25.5-20.3-25.5C203.9,127.2,192.1,141.4,189.1,159.2"/>
		</defs>
		<clipPath id="SVGID_26_">
			<use xlink:href="#SVGID_25_"  overflow="visible"/>
		</clipPath>
		
			<linearGradient id="SVGID_27_" gradientUnits="userSpaceOnUse" x1="-738.4117" y1="559.2761" x2="-734.4725" y2="559.2761" gradientTransform="matrix(34.8598 74.7572 -74.7572 34.8598 67763.5781 35860.082)">
			<stop  offset="0" style="stop-color:#004E25"/>
			<stop  offset="1" style="stop-color:#000000"/>
		</linearGradient>
		<polygon clip-path="url(#SVGID_26_)" fill="url(#SVGID_27_)" points="232.2,105.8 265.7,177.6 196.3,209.9 162.8,138.1 		"/>
	</g>
	<g>
		<defs>
			<path id="SVGID_28_" d="M247,128.9c0,0,1.4,0.8,1.4,4.5V184c0,0-0.2,2.8-1.2,3.4h15.1c0,0,0-1.2,1.5-3.2c1.5-2,32.9-46,32.9-46
				s7.2-9.2,9.1-9.2h-21.7c0,0,1.7,1.2,0.4,3.3c-1.3,2.2-20.6,32.3-20.6,32.3l0.2-30.3c0,0,0-4.9,1.8-5.3L247,128.9z"/>
		</defs>
		<clipPath id="SVGID_29_">
			<use xlink:href="#SVGID_28_"  overflow="visible"/>
		</clipPath>
		
			<linearGradient id="SVGID_30_" gradientUnits="userSpaceOnUse" x1="-738.8844" y1="558.9149" x2="-734.9452" y2="558.9149" gradientTransform="matrix(35.5823 76.3065 -76.3065 35.5823 69191.2188 36598.1992)">
			<stop  offset="0" style="stop-color:#004E25"/>
			<stop  offset="1" style="stop-color:#000000"/>
		</linearGradient>
		<polygon clip-path="url(#SVGID_29_)" fill="url(#SVGID_30_)" points="295.3,106.3 328.2,176.9 257.5,209.8 224.6,139.3 		"/>
	</g>
	<g>
		<defs>
			<path id="SVGID_31_" d="M332.6,150.4C332.6,150.4,332.6,150.4,332.6,150.4L332.6,150.4z M306.6,128.9c0,0,1.3,1.2-0.4,6.1
				c-1.7,4.9-16.6,46.8-16.6,46.8s-2.7,5.5-3.4,5.5h37.8l4.5-14c0,0-0.6,0.8-4.1,0.8h-16l3.4-9.4h12.4c0,0,2.6-0.2,3.2,0.6l5.1-14.9
				c-0.1,0.2-0.6,1.3-3.8,1.3h-12l3.6-10.4h15.2c0,0,2.1-0.3,2.8,1.4l4.9-13.8L306.6,128.9L306.6,128.9z"/>
		</defs>
		<clipPath id="SVGID_32_">
			<use xlink:href="#SVGID_31_"  overflow="visible"/>
		</clipPath>
		
			<linearGradient id="SVGID_33_" gradientUnits="userSpaceOnUse" x1="-741.2757" y1="560.1533" x2="-737.3365" y2="560.1533" gradientTransform="matrix(44.6754 95.8067 -95.8067 44.6754 87042.3906 46032.8047)">
			<stop  offset="0" style="stop-color:#004E25"/>
			<stop  offset="1" style="stop-color:#000000"/>
		</linearGradient>
		<polygon clip-path="url(#SVGID_32_)" fill="url(#SVGID_33_)" points="333.2,107 365.7,176.9 296.5,209.2 263.9,139.3 		"/>
	</g>
	<g>
		<defs>
			<path id="SVGID_34_" d="M186.5,77.4l0.1,17.1h-10.2L186.5,77.4z M183.3,57.5c0,0,1.3,1.6-1.1,5.3c-2.4,3.7-33,51.1-33,51.1
				s-0.6,1.2-2.2,1.9h18.1c0,0-0.1-1.4,0.4-2.4c0.9-1.7,3.1-5.8,3.1-5.8h18.2l0,5.1c0,0,0.1,1.8-1.2,3.1h18.1c0,0-1.3-0.8-1.6-3.1
				l-2.3-51.3c0,0-0.1-3.3,1.4-4C201.3,57.5,183.3,57.5,183.3,57.5z"/>
		</defs>
		<clipPath id="SVGID_35_">
			<use xlink:href="#SVGID_34_"  overflow="visible"/>
		</clipPath>
		
			<linearGradient id="SVGID_36_" gradientUnits="userSpaceOnUse" x1="-739.3777" y1="559.923" x2="-735.4385" y2="559.923" gradientTransform="matrix(38.2316 81.988 -81.988 38.2316 74379.6641 39363.8047)">
			<stop  offset="0" style="stop-color:#004E25"/>
			<stop  offset="1" style="stop-color:#000000"/>
		</linearGradient>
		<polygon clip-path="url(#SVGID_35_)" fill="url(#SVGID_36_)" points="193.6,35.8 226.1,105.5 157.2,137.6 124.7,67.9 		"/>
	</g>
	<polygon fill="#F5F0CC" points="370.2,76.2 334.2,76.2 329.8,89.3 353.1,89.3 326.5,99 324.8,104.3 365.6,90.2 	"/>
	<path fill="#F5F0CC" d="M144.6,98.2l-4.9,14h-35c0,0,0.8-0.3,2-2.7c1.1-2.4,17.3-49.6,17.3-49.6s2.2-4.9-0.3-6.2h20.3
		c0,0-1.2-0.3-3.1,4.7c-1.1,2.9-14.7,40.7-14.7,40.7h14.6C140.8,99.2,144.1,99.6,144.6,98.2"/>
	<path fill="#F5F0CC" d="M202.3,112.1h16.5c0,0-1.1-1.8-0.4-3.7c1-2.7,9.7-27.6,9.7-27.6l3.8,31.3h15l19.6-55.6c0,0,0.8-2.6,1.9-2.6
		l-15.9,0c0,0,0.5,1.9-0.1,3.4c-0.6,1.5-9.6,26.7-9.6,26.7l-3.5-30.1h-17.1c0,0,0.9,1.5,0.3,3.1c-0.5,1.3-18.1,51.9-18.1,51.9
		S203.2,112.1,202.3,112.1"/>
	<path fill="#F5F0CC" d="M296.5,53.9h-18.8c0,0,1.4,2.4-0.4,7.8c-1.8,5.5-16.2,46-16.2,46s-1.1,3.8-2.7,4.5l22.6,0
		c0,0,27.4,1.1,35.8-29C316.8,83.3,327.6,53.6,296.5,53.9 M298.5,85.8c-4.8,12.2-11.9,13.1-15.7,13.1c-2.5,0-2.6,0-2.6,0l11-32.4
		h4.2C295.4,66.5,306.3,65.8,298.5,85.8"/>
	<polygon fill="#F5F0CC" points="79.5,159.3 115.5,159.3 119.9,146.2 96.6,146.2 123.2,136.5 124.9,131.2 84,145.3 	"/>
	<path fill="#F5F0CC" d="M181.9,147c6.8-22.6-16-22-16-22h-23.3c1.7,2,0.4,6.1,0.4,6.1s-14.5,43.3-15.6,46.7
		c-1.1,3.3-3.2,5.7-3.2,5.7h18.4c-0.6,0-0.6-1.9-0.6-1.9l6.6-18.3c0,0,8.2,16.9,8.8,18.1c0.6,1.2,0.3,2.2,0.3,2.2h19.7
		c-1.9,0-3.8-3.7-3.8-3.7l-9.8-18.4C177.5,161.2,181.9,147,181.9,147 M165.9,145c-2.6,5.8-9.5,5.1-9.5,5.1h-3.6l3.8-11.7
		c0,0,2.1,0,3.9,0C168.9,138.4,165.9,145,165.9,145"/>
	<path fill="#F5F0CC" d="M385.5,147.8c7.2-23.7-15.8-22.6-15.8-22.6h-23.1c1.7,2,0.4,6.1,0.4,6.1s-15.1,43.5-16.2,46.8
		c-1.1,3.3-3.3,5.5-3.3,5.5l19.2,0c-1.4,0-0.4-3.6-0.4-3.6l5.9-16.7c0,0,7.9,16.9,8.5,18.1c0.6,1.2,0.3,2.2,0.3,2.2h20.4
		c-1.9,0-4-3.7-4-3.7l-9.8-18.4C381.3,161.5,385.5,147.8,385.5,147.8 M369.1,145.3c-2.1,5.6-9,5.1-9,5.1h-3.6l3.8-11.6h5.1
		C365.4,138.8,371.6,138.6,369.1,145.3"/>
	<path fill="#F5F0CC" d="M218.5,123.5c-18,0-29.8,14.3-32.8,32c-2.8,16.3,6,29.4,20.6,29.4c20.3,0,32.5-20.9,32.5-35.9
		C238.8,133.3,232.6,123.5,218.5,123.5 M221.2,156c-2.9,12.2-8.5,16-13.6,15c-6.9-1.3-5.7-12.5-4.6-17.7c2.4-11.3,8.5-16.7,13-16.2
		C217.5,137.4,225.6,137.5,221.2,156"/>
	<path fill="#F5F0CC" d="M243.6,125.2c0,0,1.4,0.8,1.4,4.5v50.6c0,0-0.2,2.8-1.2,3.4H259c0,0,0-1.2,1.5-3.2c1.5-2,32.9-46,32.9-46
		s7.1-9.2,9-9.2h-21.7c0,0,1.7,1.2,0.4,3.3c-1.3,2.2-20.6,32.3-20.6,32.3l0.2-30.4c0,0,0-4.9,1.8-5.3L243.6,125.2"/>
	<path fill="#F5F0CC" d="M335.1,139l4.9-13.8h-36.7c0,0,1.3,1.2-0.4,6.1c-1.7,4.9-16.6,46.8-16.6,46.8s-2.7,5.5-3.4,5.5h37.8l4.5-14
		c0,0-0.6,0.8-4.1,0.8h-16l3.4-9.4H321c0,0,2.6-0.2,3.2,0.6l5.1-14.9c0,0-0.4,1.4-3.8,1.4h-12l3.6-10.4h15.2
		C332.3,137.6,334.3,137.3,335.1,139"/>
	<path fill="#F5F0CC" d="M200.4,112.2c0,0-1.3-0.8-1.6-3.1l-2.3-51.3c0,0-0.1-3.3,1.4-4H180c0,0,1.3,1.6-1.1,5.3
		c-2.4,3.7-33,51.1-33,51.1s-0.6,1.2-2.1,1.9h18.1c0,0-0.1-1.5,0.4-2.4c0.9-1.7,3.1-5.8,3.1-5.8h18.2l0,5.1c0,0,0.1,1.8-1.2,3.1
		C182.3,112.2,200.4,112.2,200.4,112.2z M173.1,90.8l10-17.1l0.1,17.1H173.1z"/>
</g>
</svg>
