<?xml version="1.0" encoding="utf-8"?>
<!-- Generator: Adobe Illustrator 14.0.0, SVG Export Plug-In . SVG Version: 6.00 Build 43363)  -->
<!DOCTYPE svg PUBLIC "-//W3C//DTD SVG 1.1//EN" "http://www.w3.org/Graphics/SVG/1.1/DTD/svg11.dtd">
<svg version="1.1" id="aston_x5F_martin" xmlns="http://www.w3.org/2000/svg" xmlns:xlink="http://www.w3.org/1999/xlink" x="0px"
	 y="0px" width="400px" height="300px" viewBox="0 0 400 300" enable-background="new 0 0 400 300" xml:space="preserve">
<g id="_42253856">
	<path id="_170829896" d="M200.981,144.397c-0.671,0-1.166,0.503-1.17,0.514c-0.029,0.023-11.921,11.371-11.921,11.371
		c-4.384,4.232-10.206,2.461-10.828,2.254c0,0-50.827-13.864-50.833-13.869c-9.698-2.926-11.626-6.082-13.111-9.917
		c0,0-0.862-2.383-2.974-3.007c0,0-62.132-18.24-62.137-18.24c-2.535-0.783-3.931-1.498-4.928-3.428c0,0-3.41-6.005-3.421-6.022
		c-0.758-1.44-2.126-1.592-2.206-1.603c-4.7-0.635-6.078-3.254-6.66-4.37l-2.772-4.868c-0.868-1.508-2.105-1.636-2.145-1.64
		c-2.671-0.17-3.943-0.844-5.048-2.658c0,0-2.71-4.507-2.722-4.529c-1.332-2.461-0.871-4.223-0.257-5.268
		c1.294-2.143,3.662-2.307,4.614-2.339h148.569c4.205,0,7.604,1.274,10.117,3.796c1.807,1.798,3.049,4.145,3.691,6.972
		c0.011,0.065,0.187,0.656,1.458,0.656h29.366c1.271,0,1.445-0.59,1.457-0.656c0.644-2.827,1.885-5.174,3.688-6.972
		c2.515-2.521,5.913-3.796,10.12-3.796h148.567c0.951,0.033,3.32,0.196,4.614,2.339c0.614,1.045,1.075,2.807-0.257,5.268
		c-0.013,0.022-2.722,4.529-2.722,4.529c-1.104,1.814-2.376,2.488-5.048,2.658c-0.038,0.004-1.278,0.132-2.146,1.64l-2.771,4.868
		c-0.582,1.115-1.961,3.735-6.66,4.37c-0.08,0.011-1.449,0.163-2.206,1.603c-0.011,0.017-3.422,6.022-3.422,6.022
		c-0.996,1.93-2.394,2.646-4.929,3.428c-0.004,0-62.137,18.24-62.137,18.24c-2.11,0.624-2.973,3.007-2.973,3.007
		c-1.484,3.835-3.411,6.991-13.112,9.917c-0.005,0.004-50.833,13.869-50.833,13.869c-0.622,0.207-6.442,1.979-10.828-2.254
		c0,0-11.891-11.348-11.92-11.371c-0.005-0.011-0.5-0.514-1.171-0.514H200.981L200.981,144.397z"/>
	<path id="_170829840" fill="#FFFFFF" d="M219.823,88.147c0.519-2.302,1.512-4.189,2.939-5.617c1.978-1.979,4.728-2.985,8.165-2.985
		c0,0,33.231,0,68.251,0c-2.346,1.755-3.579,3.977-3.661,4.125c-0.791,1.48-1.776,3.215-2.953,5.156h-72.982
		C219.731,88.558,219.823,88.147,219.823,88.147L219.823,88.147L219.823,88.147z M381.426,83.06
		c-0.038,0.061-2.665,4.431-2.665,4.431c-0.5,0.821-0.808,1.193-2.855,1.323c-0.011,0-80.825,0.011-80.825,0.011
		c0.902-1.53,1.681-2.919,2.33-4.129c0.022-0.042,2.885-5.144,7.968-5.144l74.045-0.007c0.775,0.033,1.785,0.12,2.319,1.001
		c0.064,0.119,0.218,0.365,0.218,0.808C381.96,81.747,381.835,82.306,381.426,83.06L381.426,83.06L381.426,83.06z M371.54,91.845
		l-2.82,4.954c-0.386,0.733-0.979,1.865-2.865,2.516c-1.576,0.394-4.712,0.143-5.799,0.011l-68.748-4.567
		c0.888-1.317,1.712-2.585,2.464-3.789h78.363C371.929,91.232,371.727,91.515,371.54,91.845L371.54,91.845L371.54,91.845z
		 M359.852,102.76c0.019-0.021-2.703,4.77-3.27,5.765c-0.142,0.187-0.913,1.028-3.434,0.694l-65.878-8.837
		c0.903-1.181,1.76-2.353,2.562-3.485l69.981,4.644c0.102,0.012,0.396,0.045,0.817,0.083
		C360.345,101.952,360.084,102.323,359.852,102.76L359.852,102.76z M337.193,115.547c-2.479,0.657-7.329-0.087-9.016-0.437
		c0,0-30.987-6.367-45.268-9.305c0.99-1.164,1.94-2.317,2.844-3.46l66.157,8.88L337.193,115.547L337.193,115.547L337.193,115.547z
		 M314.755,122.132c-3.182,0.852-7.337-0.526-7.377-0.537l-0.048-0.016c0,0-0.007-0.005-0.014-0.005l-30.299-9.346
		c1.502-1.526,2.931-3.042,4.273-4.562l46.455,9.549c0.103,0.016,1.053,0.212,2.39,0.399L314.755,122.132L314.755,122.132
		L314.755,122.132z M291.087,129.084c-2.15,0.584-5.321-0.657-6.373-1.188c0,0-8.107-3.795-16.433-7.69
		c2.502-2.051,4.837-4.145,7.012-6.261l31.42,9.696c0.061,0.022,0.633,0.208,1.508,0.406L291.087,129.084L291.087,129.084z
		 M286.236,133.826c-0.914,2.346-1.871,4.763-8.315,7.185c-2.66,0.827-5.826-1.526-5.853-1.552
		c-0.011-0.011-7.187-5.146-15.356-10.994c3.317-2.049,6.557-4.304,9.699-6.764l17.361,8.127c0.097,0.048,1.887,0.953,4.056,1.357
		C286.792,132.365,286.32,133.584,286.236,133.826L286.236,133.826L286.236,133.826z M261.953,145.562l-2.419,0.656
		c-2.037,0.487-4.523-1.531-5.318-2.37c0,0-3.905-4.062-8.923-9.302c3.21-1.454,6.347-3.078,9.41-4.873l16.09,11.513
		c0.063,0.054,0.983,0.743,2.335,1.329C269.552,143.489,261.953,145.561,261.953,145.562L261.953,145.562z M240.677,151.365
		c-1.697,0.268-3.67-2.521-4.24-3.563l-4.854-8.214c3.963-1.142,7.839-2.511,11.606-4.125l9.465,9.878
		c0.085,0.083,1.134,1.17,2.65,2.028l-14.627,3.994h-0.001V151.365z M224.567,155.755c-1.144,0.264-2.107,0.147-2.938-0.354
		c-1.781-1.09-2.373-3.595-2.406-3.742l-2.476-8.932c4.329-0.601,8.557-1.449,12.688-2.542l5.134,8.692
		c0.177,0.311,1.219,2.126,2.779,3.396L224.567,155.755L224.567,155.755L224.567,155.755z M214.127,152.514
		c0,0-6.884-6.569-9.219-8.791c3.275-0.114,6.509-0.355,9.684-0.727l2.532,9.132c0.071,0.317,0.577,2.319,1.981,3.912
		C217.168,155.488,216.58,154.914,214.127,152.514L214.127,152.514z M202.058,141.634v-27.825h4.44l7.51,27.094
		C210.1,141.351,206.118,141.597,202.058,141.634z M187.952,140.902l7.513-27.094h4.442v27.821
		C195.84,141.597,191.858,141.347,187.952,140.902L187.952,140.902L187.952,140.902z M185.979,154.279
		c-0.972,0.945-2.065,1.477-3.125,1.763c1.416-1.599,1.909-3.605,1.983-3.917l2.531-9.117c3.175,0.366,6.407,0.606,9.683,0.716
		C194.428,146.218,185.979,154.279,185.979,154.279L185.979,154.279z M182.737,151.643c0,0.027-0.583,2.643-2.409,3.76
		c-0.829,0.5-1.792,0.616-2.936,0.354l-12.784-3.482c1.563-1.275,2.615-3.091,2.795-3.424c-0.006,0.005,2.165-3.665,5.11-8.657
		c4.135,1.094,8.368,1.942,12.697,2.536L182.737,151.643L182.737,151.643L182.737,151.643z M161.282,151.365l-14.628-3.995
		c1.519-0.863,2.57-1.952,2.65-2.033c0,0,4.181-4.367,9.465-9.874c3.774,1.608,7.639,2.987,11.604,4.13l-4.833,8.188
		C164.95,148.843,162.979,151.632,161.282,151.365L161.282,151.365L161.282,151.365z M142.423,146.218l-13.59-3.703
		c1.354-0.59,2.281-1.285,2.356-1.346c-0.011,0.011,7.595-5.431,16.069-11.494c3.063,1.788,6.199,3.418,9.414,4.872l-8.929,9.302
		C146.95,144.687,144.464,146.705,142.423,146.218L142.423,146.218L142.423,146.218z M124.022,141.01
		c-6.418-2.422-7.38-4.833-8.293-7.174c-0.075-0.208-0.544-1.455-1.597-2.652c2.173-0.411,3.97-1.313,4.088-1.374
		c-0.018,0.005,8.682-4.057,17.333-8.11c3.133,2.46,6.372,4.719,9.693,6.764l-15.334,10.972
		C129.864,139.485,126.682,141.849,124.022,141.01z M110.878,129.084c-0.647-0.193-7.853-2.309-17.137-5.037
		c0.885-0.197,1.469-0.394,1.533-0.417c-0.027,0.011,25.461-7.853,31.397-9.685c2.177,2.111,4.511,4.21,7.012,6.256l-16.406,7.679
		C116.192,128.427,113.028,129.668,110.878,129.084L110.878,129.084L110.878,129.084z M87.22,122.137
		c-5.051-1.481-10.377-3.045-15.4-4.522c1.34-0.187,2.297-0.383,2.397-0.406c-0.004,0.007,32.796-6.736,46.455-9.542
		c1.352,1.514,2.768,3.036,4.269,4.562l-30.333,9.358C94.541,121.606,90.404,122.979,87.22,122.137L87.22,122.137L87.22,122.137z
		 M64.787,115.554c-6.824-2.013-12.372-3.637-14.739-4.329l66.168-8.88c0.903,1.137,1.849,2.291,2.839,3.456l-45.272,9.309
		C72.1,115.46,67.272,116.204,64.787,115.554L64.787,115.554L64.787,115.554z M48.815,109.219c-2.502,0.334-3.289-0.492-3.433-0.689
		l-3.292-5.797c-0.224-0.431-0.49-0.792-0.764-1.109c0.422-0.039,70.813-4.726,70.813-4.726c0.803,1.131,1.651,2.296,2.554,3.484
		L48.815,109.219L48.815,109.219L48.815,109.219z M36.112,99.315c-1.888-0.651-2.485-1.783-2.871-2.516
		c-1.155-1.962-2.673-4.895-3.418-5.83h78.376c0.753,1.204,1.57,2.472,2.464,3.789l-68.759,4.568
		C40.825,99.458,37.687,99.708,36.112,99.315L36.112,99.315L36.112,99.315z M26.078,88.824c-1.89-0.141-2.29-0.365-2.884-1.339
		c0.006,0.007-2.464-4.1-2.661-4.424c-0.409-0.754-0.544-1.313-0.527-1.707c0.046-1.006,0.73-1.783,2.532-1.81l74.05,0.006
		c5.012,0,7.968,5.145,7.968,5.145c0.652,1.209,1.428,2.598,2.336,4.128L26.078,88.824L26.078,88.824L26.078,88.824z
		 M171.031,79.543c3.442,0,6.188,1.006,8.165,2.986c1.429,1.426,2.42,3.314,2.946,5.617c0,0,0.106,0.393,0.241,0.677h-72.982
		c-1.114-1.831-2.954-5.156-2.954-5.156c-0.08-0.147-1.314-2.369-3.66-4.125C137.804,79.543,171.031,79.543,171.031,79.543
		L171.031,79.543L171.031,79.543z M276.718,93.797v-2.828h14.51c-0.737,1.158-1.545,2.374-2.408,3.626L276.718,93.797
		L276.718,93.797z M276.718,98.969v-2.941l10.595,0.7c-0.781,1.087-1.618,2.197-2.49,3.33L276.718,98.969L276.718,98.969z
		 M276.718,104.538v-3.402l6.554,0.88c-0.882,1.089-1.806,2.188-2.769,3.297C278.811,104.965,277.51,104.701,276.718,104.538
		L276.718,104.538z M276.718,106.732l2.139,0.436c-0.688,0.761-1.404,1.532-2.139,2.293V106.732L276.718,106.732z M254.61,113.809
		h17.71c-1.804,1.793-6.064,5.266-6.204,5.381C261.809,117.171,257.608,115.213,254.61,113.809L254.61,113.809z M236.228,113.809
		h13.312l14.681,6.869c-3.052,2.335-6.188,4.479-9.413,6.431C247.723,122.034,240.259,116.69,236.228,113.809L236.228,113.809
		L236.228,113.809z M225.401,113.809h7.141l20.237,14.493c-2.949,1.69-5.979,3.227-9.068,4.594
		C237.046,125.95,229.018,117.576,225.401,113.809L225.401,113.809z M216.354,113.809h6.065l19.174,19.995
		c-3.621,1.509-7.338,2.793-11.142,3.872L216.354,113.809L216.354,113.809L216.354,113.809z M213.858,113.809l14.443,24.446
		c-3.954,1.029-8.003,1.817-12.135,2.38l-7.438-26.826H213.858z M188.102,113.809h5.129l-7.438,26.826
		c-4.14-0.563-8.184-1.352-12.137-2.374C179.069,129.106,186.292,116.875,188.102,113.809L188.102,113.809z M179.541,113.809h6.064
		l-14.097,23.867c-3.804-1.072-7.518-2.363-11.146-3.879C168.052,125.786,177.305,116.138,179.541,113.809L179.541,113.809
		L179.541,113.809z M169.42,113.809h7.141l-18.303,19.086c-3.096-1.368-6.12-2.904-9.079-4.594
		C157.962,122.012,167.118,115.455,169.42,113.809L169.42,113.809z M135.844,119.189c-0.161-0.131-4.403-3.696-6.205-5.381h17.708
		L135.844,119.189L135.844,119.189z M152.423,113.809h13.305l-18.576,13.295c-3.227-1.948-6.363-4.091-9.409-6.426
		C144.717,117.413,151.175,114.393,152.423,113.809L152.423,113.809L152.423,113.809z M125.227,106.732v2.706
		c-0.728-0.753-1.435-1.514-2.117-2.271C123.959,106.989,124.672,106.845,125.227,106.732z M125.227,101.136v3.401l-3.77,0.777
		c-0.962-1.114-1.881-2.208-2.761-3.297L125.227,101.136z M125.227,96.028v2.941l-8.082,1.089c-0.874-1.133-1.703-2.243-2.485-3.33
		L125.227,96.028L125.227,96.028L125.227,96.028z M125.227,93.797l-12.074,0.798c-0.869-1.252-1.671-2.468-2.409-3.626h14.481v2.828
		H125.227z"/>
	<path id="_170831360" fill="#087B6A" d="M127.411,111.659c-0.013-0.011-0.021-0.022-0.032-0.033V90.98h147.192v20.657
		c-0.005,0.011-0.012,0.011-0.017,0.017L127.411,111.659L127.411,111.659L127.411,111.659z"/>
	<path id="_171137640" fill="#FFFFFF" d="M137.159,94.277h-0.614l-6.29,14.072h1.703l0.026-0.082
		c0.51-1.712,1.165-3.353,1.803-4.927c0,0,0.09-0.226,0.131-0.334c0.155,0,4.708,0,4.864,0c0.657,1.497,1.33,3.215,2.051,5.265
		l0.027,0.077h2.353L137.159,94.277L137.159,94.277z M134.395,101.934c0.128-0.311,1.779-4.178,1.977-4.637
		c0.193,0.458,1.877,4.326,2.01,4.637C138.051,101.934,134.718,101.934,134.395,101.934L134.395,101.934L134.395,101.934z"/>
	<path id="_171199256" fill="#FFFFFF" d="M143.891,107.348l0.053,0.054c0.743,0.811,2.418,1.189,3.32,1.189
		c2.951,0,5.018-1.904,5.018-4.637c0-2.266-1.715-2.933-3.372-3.588c-1.473-0.585-2.872-1.126-2.872-2.8
		c0-1.27,1.001-2.188,2.373-2.188c1.097,0,1.925,0.579,2.346,1.64l0.029,0.077h0.374l0.588-1.777l-0.065-0.06
		c-0.801-0.722-2.035-0.979-2.913-0.979c-2.752,0-4.525,1.537-4.525,3.921c0,2.429,1.812,3.134,3.404,3.769
		c1.442,0.558,2.794,1.094,2.794,2.763c0,1.547-1.153,2.767-2.624,2.767c-1.348,0-2.24-0.58-3.109-2.002l-0.034-0.054h-0.374
		l-0.41,1.909L143.891,107.348L143.891,107.348z"/>
	<path id="_171234112" fill="#FFFFFF" d="M163.385,94.567h-10.347v1.45l0.134-0.011c1.188-0.126,2.334-0.235,4.206-0.242
		c0,0.246,0,12.628,0,12.628h1.988c0,0,0-12.376,0-12.622c1.405,0,2.749,0.081,4.004,0.235l0.14,0.016v-1.455L163.385,94.567
		L163.385,94.567z"/>
	<path id="_171242176" fill="#FFFFFF" d="M170.515,94.277c-4.389,0-7.459,2.959-7.459,7.187c0,4.266,2.986,7.126,7.422,7.126
		c4.585,0,7.672-2.987,7.672-7.428C178.15,96.404,174.313,94.277,170.515,94.277z M174.19,106.134
		c-0.977,1.033-2.201,1.559-3.658,1.559c-3.214,0-5.292-2.351-5.292-5.987c0-4.031,2.1-6.531,5.473-6.531
		c1.591,0,3.092,0.7,4.02,1.87c1.02,1.302,1.228,2.659,1.228,4.283c0.005,0.088,0.011,0.187,0.011,0.28
		C175.97,102.93,175.432,104.806,174.19,106.134L174.19,106.134L174.19,106.134z"/>
	<path id="_171242152" fill="#FFFFFF" d="M191.932,94.567h-1.233c0,0,0,9.958,0,10.2c-0.012,0-0.017,0-0.022,0
		c-0.071-0.083-9.416-10.2-9.416-10.2h-0.95v13.782h1.355c0,0,0-10.419,0-10.665c0.011,0,0.018,0,0.028,0
		c0.073,0.083,8.518,9.43,8.518,9.43l1.06,1.235h0.063h0.721V94.567H191.932L191.932,94.567L191.932,94.567z"/>
	<path id="_171249360" fill="#FFFFFF" d="M214.202,94.567h-0.487l-3.339,6.054c0,0-2.111,3.851-2.305,4.196
		c-2.06-3.435-3.912-7.05-5.491-10.184l-0.033-0.065h-0.7l-0.011,0.115c-0.197,2.035-1.383,10.331-1.901,13.531l-0.025,0.136h1.67
		v-0.119c0-1.941,0.344-4.836,0.711-7.904c0,0,0.154-1.356,0.219-1.897c0.234,0.448,2.826,5.371,3.817,7.4l1.119,2.308h0.376
		l0.031-0.077c1.154-2.646,2.78-5.672,5.008-9.653c0.315,2.374,0.733,7.115,0.964,9.833l0.012,0.11h2.113l-0.02-0.136
		c-0.477-3.343-0.996-7.767-1.604-13.531l-0.013-0.115h-0.11V94.567L214.202,94.567z"/>
	<path id="_171205240" fill="#FFFFFF" d="M223.651,94.277h-0.615l-6.294,14.072h1.714l0.021-0.082
		c0.511-1.729,1.17-3.375,1.811-4.961c0,0,0.08-0.196,0.117-0.3c0.155,0,4.708,0,4.867,0c0.67,1.53,1.359,3.291,2.048,5.266
		l0.028,0.076h2.354L223.651,94.277L223.651,94.277L223.651,94.277z M220.885,101.934c0.129-0.311,1.781-4.178,1.978-4.637
		c0.197,0.458,1.877,4.326,2.013,4.637C224.543,101.934,221.211,101.934,220.885,101.934z"/>
	<path id="_171209080" fill="#FFFFFF" d="M235.754,101.54c2.489-0.502,3.976-1.919,3.976-3.834c0-2.104-1.476-3.137-4.521-3.137
		h-4.318v13.78h1.982c0,0,0-6.366,0-6.605c0.155,0,0.492,0,0.579,0c0.063,0.081,1.544,1.821,1.544,1.821
		c-0.007-0.007,2.335,3.024,2.335,3.024l1.281,1.76h0.067h2.529C241.209,108.349,235.99,101.831,235.754,101.54L235.754,101.54
		L235.754,101.54z M232.872,100.753c0-0.22,0-4.989,0-5.207c0.816-0.039,2.084-0.092,2.772,0.018
		c1.374,0.223,2.074,1.027,2.074,2.378c0,1.384-0.909,2.395-2.441,2.703C234.416,100.818,233.376,100.786,232.872,100.753z"/>
	<path id="_171209056" fill="#FFFFFF" d="M251.202,94.567h-10.353v1.45l0.135-0.011c1.189-0.126,2.336-0.235,4.201-0.242
		c0,0.246,0,12.628,0,12.628h1.999c0,0,0-12.376,0-12.622c1.399,0,2.745,0.081,4.001,0.235l0.141,0.016v-1.455L251.202,94.567
		L251.202,94.567L251.202,94.567z"/>
	<polygon id="_171221600" fill="#FFFFFF" points="252.96,108.349 254.837,108.349 254.837,94.567 252.96,94.567 	"/>
	<path id="_171224520" fill="#FFFFFF" d="M268.146,94.567c0,0,0,9.958,0,10.2c-0.006,0-0.011,0-0.015,0
		c-0.075-0.083-9.417-10.2-9.417-10.2h-0.952v13.782h1.357c0,0,0-10.419,0-10.665c0.011,0,0.016,0,0.021,0
		c0.072,0.083,8.528,9.43,8.528,9.43l1.06,1.235h0.771V94.567H268.146L268.146,94.567z"/>
	<path id="_171224496" d="M88.04,220.318c-0.743-0.045-1.375-0.121-2.049-0.121c-0.746,0-1.416,0.076-2.089,0.121
		c-1.139-3.272-2.561-7.045-4.138-10.627H69.761c-1.381,3.461-2.8,6.922-3.901,10.627c-0.553-0.045-0.983-0.121-1.461-0.121
		c-0.511,0-0.946,0.076-1.377,0.121l12.292-27.5h0.907L88.04,220.318L88.04,220.318z M337.553,220.318h-1.188
		c-0.434-0.549-1.224-1.494-2.046-2.402l-17.025-18.814h-0.386v21.217c-0.396-0.045-0.749-0.121-1.11-0.121
		c-0.391,0-0.748,0.076-1.101,0.121v-26.914h1.539l18.712,20.264h0.396v-20.264c0.354,0.033,0.705,0.114,1.105,0.114
		c0.355,0,0.711-0.081,1.102-0.114L337.553,220.318L337.553,220.318z M305.653,193.402c0.555,0.033,1.147,0.115,1.734,0.115
		c0.551,0,1.105-0.082,1.731-0.115v26.916c-0.628-0.045-1.182-0.121-1.731-0.121c-0.587,0-1.181,0.076-1.734,0.121V193.402z
		 M293.028,220.394c-0.632-0.038-1.186-0.12-1.74-0.12c-0.588,0-1.177,0.082-1.729,0.12V195.29c-3.976,0-6.379,0.233-8.635,0.47
		c0.05-0.395,0.122-0.788,0.122-1.177c0-0.398-0.072-0.749-0.122-1.181h20.335c-0.039,0.432-0.112,0.781-0.112,1.181
		c0,0.389,0.073,0.782,0.112,1.177c-1.967-0.234-4.729-0.47-8.23-0.47V220.394L293.028,220.394L293.028,220.394z M261.108,193.402
		h8.354c6.072,0,8.749,2.002,8.749,5.979c0,4.562-4.095,6.771-8.075,7.476l8.116,10.271l1.893,2.204l0.743,0.985
		c-0.823-0.045-1.533-0.121-2.283-0.121c-0.746,0-1.534,0.076-2.254,0.121c-0.86-1.222-1.646-2.33-2.479-3.431l-4.645-6.015
		l-3.151-3.693h-1.492v13.139c-0.635-0.045-1.187-0.121-1.737-0.121c-0.593,0-1.184,0.076-1.736,0.121v-26.916H261.108z
		 M264.583,205.675c0.547,0.039,3.066,0.197,5.078-0.196c2.885-0.587,5.047-2.559,5.047-5.623c0-2.718-1.387-4.49-4.337-4.966
		c-1.454-0.229-4.143-0.114-5.788-0.032V205.675L264.583,205.675z M258.381,220.318c-0.754-0.045-1.375-0.121-2.054-0.121
		c-0.746,0-1.416,0.076-2.078,0.121c-1.149-3.272-2.571-7.045-4.146-10.627h-10.001c-1.384,3.461-2.806,6.922-3.903,10.627
		c-0.554-0.045-0.984-0.121-1.456-0.121c-0.512,0-0.95,0.076-1.379,0.121l12.288-27.5h0.906L258.381,220.318L258.381,220.318z
		 M245.142,197.97l-4.297,10.067h8.668L245.142,197.97L245.142,197.97L245.142,197.97z M228.364,193.402
		c1.025,9.715,2.131,19.4,3.189,26.916c-0.711-0.045-1.263-0.121-1.851-0.121c-0.636,0-1.262,0.076-1.85,0.121
		c-0.667-7.914-1.469-16.408-2.019-20.304c-4.569,8.146-7.958,14.433-10.319,19.869h-0.433l-2.165-4.451
		c-2.526-5.185-5.283-10.304-7.961-15.418c-0.867,7.667-1.932,15.456-1.932,20.304c-0.509-0.045-0.945-0.121-1.374-0.121
		c-0.512,0-0.949,0.076-1.421,0.121c1.021-6.336,3.385-22.787,3.78-26.916h1.024c3.151,6.264,6.936,13.65,11.146,20.619
		c3.753-6.736,7.376-13.572,11.354-20.619H228.364L228.364,193.402z M183.965,220.318h-1.189c-0.428-0.549-1.219-1.494-2.043-2.402
		l-17.023-18.814h-0.394v21.217c-0.394-0.045-0.75-0.121-1.104-0.121c-0.39,0-0.743,0.076-1.102,0.121v-26.914h1.539l18.711,20.264
		h0.398v-20.264c0.353,0.033,0.707,0.114,1.097,0.114c0.354,0,0.712-0.081,1.11-0.114L183.965,220.318L183.965,220.318z
		 M127.457,206.857c0-8.619,6.417-14.039,14.577-14.039c7.41,0,14.931,4.002,14.931,13.447c0,8.771-6.221,14.526-15.002,14.526
		C133.254,220.792,127.457,215.279,127.457,206.857L127.457,206.857L127.457,206.857z M150.626,197.925
		c-1.967-2.478-5.041-3.815-8.201-3.815c-6.925,0-11.104,5.233-11.104,13.217c0,7.998,4.884,12.16,10.755,12.16
		c8.315,0,11.31-8.576,11.029-12.902C153.104,203.324,152.674,200.562,150.626,197.925L150.626,197.925L150.626,197.925z
		 M119.682,220.394c-0.633-0.038-1.181-0.12-1.734-0.12c-0.594,0-1.188,0.082-1.731,0.12V195.29c-3.982,0-6.39,0.233-8.63,0.47
		c0.038-0.395,0.117-0.788,0.117-1.177c0-0.398-0.079-0.749-0.117-1.181h20.328c-0.042,0.432-0.118,0.781-0.118,1.181
		c0,0.389,0.075,0.782,0.118,1.177c-1.973-0.234-4.726-0.47-8.231-0.47L119.682,220.394L119.682,220.394z M90.802,215.001
		c1.533,2.521,3.303,4.095,6.385,4.095c3.186,0,5.472-2.641,5.472-5.745c0-7.319-12.333-4.088-12.333-12.985
		c0-5.074,4.02-7.547,8.749-7.547c1.885,0,4.179,0.584,5.627,1.883c-0.472,1.021-0.745,2.119-1.06,3.226h-0.39
		c-0.829-2.128-2.562-3.423-4.885-3.423c-2.722,0-4.964,1.813-4.964,4.599c0,7.246,12.407,4.332,12.407,12.716
		c0,5.629-4.382,8.976-9.734,8.976c-1.927,0-5.079-0.826-6.418-2.286c0.388-1.145,0.587-2.325,0.745-3.505h0.398V215.001z
		 M74.801,197.97l-4.29,10.067h8.665L74.801,197.97L74.801,197.97z"/>
</g>
</svg>
