<?xml version="1.0" encoding="utf-8"?>
<!-- Generator: Adobe Illustrator 21.0.0, SVG Export Plug-In . SVG Version: 6.00 Build 0)  -->
<svg version="1.1" id="Layer_1" xmlns="http://www.w3.org/2000/svg" xmlns:xlink="http://www.w3.org/1999/xlink" x="0px" y="0px"
	 viewBox="0 0 515.2 515.1" style="enable-background:new 0 0 515.2 515.1;" xml:space="preserve">
<style type="text/css">
	.st0{fill:#FFFFFF;}
</style>
<g>
	<path class="st0" d="M356.5,308.9c-2-0.7-8-2.3-8-2.3s0,14.3,0,16.7c0,4-1.1,6.4-2.8,8.4c-1.7,2-14.5,17.8-16.9,21.2
		c-1.2,1.7-2.6,5.6-2.9,7.3c-0.4,2.9-1.5,11.9-2,15.8c-0.3,2-0.9,4-2.8,4.4c-2.4,0.5-5.7,0.9-5.7,0.9s0-12.7,0-27.6l-23.4,5.2v28.6
		l-7.6,1.8v-28.8L261,366v25.4h-7.1V366l-23.5-5.3v28.8l-7.6-1.8V359l-23.4-5.2c0,14.9,0,27.6,0,27.6s-3.3-0.4-5.7-0.9
		c-1.9-0.4-2.5-2.4-2.8-4.4c-0.5-3.8-1.6-12.8-2-15.8c-0.2-1.7-1.6-5.7-2.9-7.3c-2.5-3.3-15.3-19.2-16.9-21.2
		c-1.7-2-2.8-4.4-2.8-8.4c0-2.3,0-16.7,0-16.7s-6,1.6-8,2.3c-2,0.7-2.3,2.6-2.3,4.6s0,31.5,0,33.2c0,2.8,1.7,6.2,3.1,7.4
		c0.9,0.8,24.9,27.5,27.9,30.6c1.7,1.7,3,5,3.3,7c0.3,2,3.8,15,4.1,17.3c0.3,2.3,2.3,6,4,7.7c1.7,1.7,10.3,10,12,11.7
		c1.7,1.7,4.3,4.3,6.7,4.3c2.3,0,40.4,0,40.4,0s38.1,0,40.4,0c2.3,0,5-2.7,6.7-4.3c1.7-1.7,10.3-10,12-11.7c1.7-1.7,3.7-5.3,4-7.7
		c0.3-2.3,3.8-15.3,4.1-17.3c0.3-2,1.7-5.3,3.3-7c3-3.1,27-29.8,27.9-30.6c1.4-1.3,3.1-4.7,3.1-7.4c0-1.7,0-31.2,0-33.2
		S358.5,309.6,356.5,308.9z"/>
	<path class="st0" d="M371.1,161.7c1.8,29.2,12,47,21.7,62.8c-2.7-29.7,6.3-64.5,6.3-100.5c0-60-46.1-124-141.7-124
		S115.7,64,115.7,124c0,36,9,70.8,6.3,100.5c9.7-15.8,19.9-33.7,21.7-62.8c3.2,39.5-9.3,63.7-22.5,80.7c-4.1,5.3-5.5,12-1.8,18.7
		c3.7,6.7,11.6,21.7,14.2,25.9c2,3.2,2.6,4.1,4.7,6.2c2.4,2.4,6.1,4.9,7.8,5.5c1.7,0.7,5.7,1.1,10-0.2c4.3-1.3,26-7.3,28.4-8
		c2.4-0.7,4.9-1,6.6,1c1.7,2,5.5,7,7,9.3c1.6,2.4,1.3,4.3,1.3,6.3c0,1,0,20.6,0,39.4l23.4,5.2v-29.3l7.6,1.8v29.1l23.5,5.3v-29.1
		h7.1v29.1l23.5-5.3v-29.1l7.6-1.8v29.3l23.4-5.2c0-18.8,0-38.4,0-39.4c0-2-0.2-4,1.3-6.3c1.5-2.3,5.3-7.3,7-9.3
		c1.7-2,4.1-1.7,6.6-1c2.4,0.7,24.1,6.7,28.4,8c4.3,1.3,8.4,0.9,10,0.2c1.7-0.7,5.4-3.1,7.8-5.5c2-2,2.7-2.9,4.7-6.2
		c2.5-4.1,10.5-19.2,14.2-25.9c3.7-6.7,2.3-13.4-1.8-18.7C380.4,225.4,368,201.2,371.1,161.7z M228.3,245.7
		c-8.5,5.5-15.9,7.4-25.1,9.4c-9.2,2-15.6,0.3-18.8-0.4c-6.2-1.5-21.7-10.6-25-12.9c-4.7-3.4-7.5-9.3-8.5-15.2
		c-1.4-8.7-1-22.6-0.7-28.7c0.4-6.8,0.5-14.9,21.5-14.3s50.7,11,67,22.5c9.5,6.7,8.2,16,6.3,21.2
		C243.2,232.3,238.1,239.3,228.3,245.7z M279.1,282.7c-1.5,1.9-11.5,9.6-12.8,10.3s-4.9,2-5.8-2.3s-1.5-21.8-1.5-23.4
		s-1-2.1-1.7-2.1c-0.7,0-1.7,0.5-1.7,2.1s-0.6,19.1-1.5,23.4s-4.5,2.9-5.8,2.3s-11.3-8.4-12.8-10.3s-3.3-4.6-1-9.3
		c1.8-3.7,9.3-17.5,12.6-23c0.8-1.4,3.1-2.5,4.7-2.5h5.3h5.3c1.6,0,3.9,1.1,4.7,2.5c3.3,5.5,10.8,19.3,12.6,23
		C282.4,278,280.6,280.8,279.1,282.7z M364,226.5c-1,5.9-3.8,11.8-8.5,15.2c-3.3,2.4-18.8,11.4-25,12.9c-3.2,0.8-9.6,2.4-18.8,0.4
		c-9.2-2-16.6-4-25.1-9.4c-9.8-6.3-14.9-13.3-16.8-18.5c-1.8-5.2-3.2-14.5,6.3-21.2c16.3-11.5,46-21.8,67-22.5s21.2,7.5,21.5,14.3
		C365,203.9,365.4,217.8,364,226.5z"/>
</g>
<g>
	<path class="st0" d="M3.9,514c-0.4,0-1,0-1.8-0.1c-0.8-0.1-1.5-0.1-2-0.2C0,513.5,0,513,0,512.1c0.1-2.2,0.2-4.4,0.2-6.7
		c0-2.2,0-4.4,0-6.6v-3.1c0-0.1,0-0.3,0-0.7c0-0.4,0-0.8,0-1.4c0-0.7,0-1.5,0-2.4c0-0.9-0.1-1.8-0.1-2.8c0-0.9,0-1.8,0-2.6
		c0-0.8,0-1.5,0-1.9h3.7l-0.1-0.1c0.3,0.1,0.5,0.1,0.7,0.1c0.2,0,0.5,0,0.7,0c0.1,0,0.1,0.1,0.1,0.2v0.6v3.7v0.5v2.7v0.9
		c0,1.1,0,2.2,0,3.3c0,1.1,0,2-0.1,2.7c-0.1,0.4-0.1,1.1-0.1,2c0,0.9,0,1.8,0.1,2.8v0.5c0,0.4,0,0.8,0,1.1c0,0.3,0,0.6,0,1
		c-0.1,0.3-0.1,0.6-0.1,0.9c0,0.3,0,0.7,0,1.1c-0.1,0.6,0,1.3,0.2,2c0.2,0.8,0.5,1.4,1,1.9c0.6,0.6,1.4,1,2.3,1h0.5
		c1.3,0,2.6,0,3.9,0c1.3,0,2.6,0,3.9,0.1h1.1c0.6,0.1,1.3,0.1,1.9,0.1c0.6,0,1.3,0,1.9,0c1.1,0.1,2.2,0.1,3.3,0.1c1.1,0,2.2,0,3.3,0
		h0.1c0.3,0,0.5,0,0.7,0c0.2,0,0.4,0,0.6-0.1h1.2h0.8v0.5c-2.4,0-4.8,0-7,0c-2.2,0-4.6,0-6.9,0.1c-1.5,0.1-2.9,0.1-4.4,0.1
		c-1.5,0-3,0-4.6,0H7.5c-0.3,0-0.5,0-0.8,0c-0.3,0-0.5,0-0.8,0.1c-0.3,0-0.6,0-0.9,0C4.7,514,4.3,514,3.9,514z"/>
	<path class="st0" d="M71.2,515h-1c-4.9-0.3-8.9-2.5-12.2-6.7c-1.7-2.1-2.8-4.3-3.4-6.7c-0.6-2.3-1-4.6-1.2-6.9
		c-0.1-1.2-0.2-2.6-0.2-4c0-1.4,0-2.8,0-4.3c0-0.4,0-0.8,0-1.1c0-0.4,0-0.8,0.1-1.2c0-0.1,0-0.1-0.1-0.2c0-0.4,0-0.6,0.1-0.6
		c0.2-0.1,0.4-0.2,0.8-0.2c0.4,0,0.7,0,0.9,0c0.3,0,0.5,0,0.7,0c0.2,0,0.4,0,0.6,0c0.6,0,1.1,0.1,1.5,0.2c0.2,0.1,0.3,0.1,0.3,0.1
		c0.1,0.1,0.1,0.4,0.1,0.7c0,0.4,0,0.8-0.1,1.1v0.9c-0.1,2.7,0,5.6,0.1,8.6c0.1,3,0.6,6,1.5,9.1c0.5,2.1,1.2,3.8,2,5.2
		c0.8,1.4,1.9,2.7,3.3,3.9c0.1,0,0.1,0,0.2,0.1c1.5,1.1,3.3,1.6,5.4,1.6c2,0,3.9-0.4,5.7-1.3c1.8-0.9,3.1-2,3.8-3.5
		c1.4-2.2,2.2-4.5,2.5-6.9c0.3-2.4,0.4-5,0.2-7.9c0-0.5,0-1.1,0-1.6c0-0.5-0.1-1.1-0.1-1.6c-0.1-1.6-0.1-3.1-0.1-4.5
		c0-1.4,0-2.6,0.1-3.6c0.1-0.2,0.3-0.3,0.7-0.4c0.4-0.1,0.9-0.1,1.3-0.1l0.4-0.1c0.4,0,0.8,0,1,0c0.2,0,0.5,0.1,1,0.2
		c0,0.4,0,1.4,0,3c0,1.6-0.1,3.5-0.2,5.5c-0.1,2-0.2,4.1-0.3,6.2c-0.1,2.1-0.3,3.8-0.5,5.2c-0.3,2.2-1,4.1-2,5.6
		c-1,1.5-2.2,2.7-3.7,3.7c-1.4,0.9-3,1.6-4.6,2.1C74.3,514.8,72.7,515,71.2,515z"/>
	<path class="st0" d="M135.3,514.7c-0.3,0-0.5-0.1-0.8-0.2c-0.3-0.1-0.6-0.4-1.1-0.9c-0.8-1-1.7-2.1-2.6-3.1c-0.9-1-1.8-2-2.6-3
		c-0.6-0.8-1.3-1.5-1.9-2.2c-0.6-0.7-1.3-1.4-1.9-2.2c-0.4-0.4-0.8-0.6-1.3-0.6c-0.5,0-0.9,0.2-1.3,0.6c-1.6,1.9-3.2,3.8-4.8,5.7
		c-1.6,1.8-3.3,3.7-5.2,5.5c-0.1,0.1-0.1,0.1-0.1,0.2c0,0.1-0.1,0.1-0.1,0.2h-0.4h-0.2c-0.1,0-0.2,0-0.3,0c-0.1,0-0.2,0-0.3-0.1
		c0.3-0.4,0.7-0.8,1.1-1.1c0.5-0.4,0.9-0.9,1.4-1.5c0.1-0.2,0.2-0.3,0.4-0.5c0.1-0.2,0.3-0.4,0.5-0.7c0.3-0.3,0.5-0.5,0.7-0.8
		c0.2-0.2,0.5-0.5,0.7-0.9c0.3-0.3,0.6-0.7,1-1.1c0.4-0.4,0.9-1,1.5-1.6c0.1-0.2,0.2-0.3,0.4-0.4c0.1-0.1,0.3-0.3,0.4-0.5l0.3-0.3
		c0.1-0.1,0.2-0.2,0.2-0.2c0-0.1,0.1-0.1,0.1-0.2c0.4-0.5,0.9-1,1.3-1.5c0.4-0.5,0.8-1,1.3-1.5c0.3-0.3,0.4-0.6,0.4-1
		c0-0.4-0.1-0.8-0.4-1.1l-1.2-1.6c-0.6-0.8-1.2-1.6-1.7-2.2c-0.5-0.7-1.1-1.4-1.7-2.1c-0.6-0.7-1.2-1.5-1.9-2.4
		c-0.7-0.8-1.5-1.8-2.4-2.9c-0.5-0.7-1.1-1.3-1.5-1.8c-0.5-0.6-0.9-1-1.1-1.3l-0.3-0.3c-0.2-0.3-0.3-0.5-0.5-0.8
		c-0.2-0.3-0.3-0.5-0.5-0.7c0.3,0,0.5,0,0.8,0c0.3,0,0.5,0,0.8-0.1c0.5,0,1,0,1.5,0c0.5,0,1,0,1.4,0h0.8c0.2,0,0.5,0.2,0.8,0.6
		c0.1,0.1,0.1,0.2,0.2,0.4c0.1,0.1,0.2,0.3,0.3,0.4c0.1,0.1,0.1,0.2,0.2,0.4c0.1,0.1,0.2,0.2,0.3,0.4c0.1,0.1,0.2,0.3,0.3,0.4
		c0.7,1,1.3,1.7,1.7,2.3c0.4,0.6,0.8,1,1,1.3c0.2,0.3,0.4,0.5,0.4,0.6c0.1,0.1,0.1,0.1,0.2,0.2c0.4,0.5,1,1.2,1.8,2.1
		c0.8,0.9,1.7,2,2.8,3.3c0.3,0.4,0.8,0.6,1.3,0.6c0.6,0,1.1-0.2,1.4-0.6l0.2-0.2c0.1-0.1,0.1-0.2,0.2-0.2c0.1-0.1,0.1-0.1,0.2-0.2
		c0.1-0.1,0.2-0.2,0.2-0.3c0-0.1,0.1-0.2,0.2-0.3c0.8-1,1.6-1.9,2.4-2.9c0.8-1,1.6-1.8,2.3-2.6c0.4-0.5,0.8-0.9,1.1-1.3
		c0.3-0.4,0.6-0.7,0.9-1c0.6-0.6,1-1.1,1.3-1.6c0.2-0.2,0.4-0.4,0.4-0.6c0.2-0.4,0.4-0.6,0.6-0.6c0.1,0,0.2,0,0.3-0.1
		c0.1,0,0.3,0,0.5,0c0.2,0,0.5,0,0.8,0h0.6c-2.1,2.3-4.1,4.6-6.1,6.9c-2,2.2-4,4.5-5.9,6.8c-0.6,0.8-0.6,1.5,0,2.2
		c0.3,0.4,0.6,0.8,0.9,1.2c0.3,0.4,0.6,0.7,1,1.2l1.5,1.7l0.3,0.5c0.2,0.2,0.3,0.3,0.4,0.5c0.1,0.2,0.3,0.4,0.4,0.5
		c0.2,0.2,0.4,0.5,0.7,0.9l0.5,0.5c1,1.2,1.9,2.4,2.7,3.3c0.8,1,1.6,1.8,2.2,2.4c0.2,0.3,0.4,0.5,0.6,0.7c0.2,0.2,0.3,0.3,0.4,0.5
		c0.1,0.2,0.2,0.3,0.4,0.5c0.2,0.3,0.5,0.6,0.7,0.9c0,0.1,0.1,0.1,0.2,0.2c-0.3,0-0.6,0-1.1,0c-0.5,0-1.1,0-1.9,0h-1.3H135.3z"/>
	<path class="st0" d="M174.1,513.4c-0.2-0.1-0.3-0.1-0.5-0.2c-0.2-0.1-0.4-0.1-0.6-0.2c-0.3-0.1-0.7-0.2-1-0.4
		c-0.4-0.1-0.7-0.3-0.9-0.4c-0.3-0.2-0.6-0.4-1.1-0.6c-0.4-0.2-0.9-0.5-1.3-0.8c-0.5-0.3-0.9-0.6-1.3-0.9c-0.4-0.3-0.8-0.5-1-0.7
		c-1.5-1.4-2.6-2.7-3.3-4.1c-0.3-0.7-0.6-1.4-0.9-2.2c-0.3-0.8-0.5-1.6-0.6-2.4c-0.2-0.8-0.2-1.7-0.2-2.5c0.1-0.8,0.2-1.6,0.6-2.4
		c0.4-0.8,0.9-1.7,1.5-2.8c0.6-1.1,1.5-2.2,2.6-3.3c0.4-0.4,0.8-0.8,1.2-1.1c0.4-0.3,0.8-0.6,1.2-0.9c0.4-0.3,0.9-0.6,1.5-0.9
		c0.6-0.3,1.2-0.6,1.9-0.9h0.1c0.3-0.1,0.5-0.2,0.8-0.3c0.3-0.1,0.5-0.2,0.8-0.3c0.3-0.1,0.6-0.2,0.7-0.2c0.1,0,0.1,0,0.1,0
		c0,0,0.1,0,0.1,0c0.2-0.1,0.3-0.1,0.5-0.2c0.2-0.1,0.4-0.1,0.6-0.2c0.8-0.3,1.5-0.5,2.2-0.7c0.7-0.2,1.3-0.3,2-0.4h0.4
		c-1.1,0.3-2.3,0.7-3.4,1.2c-1.1,0.5-2.2,1.2-3.2,1.9c-0.9,0.7-1.9,1.5-2.8,2.4c-0.9,0.9-1.8,1.8-2.5,2.9c-0.7,1.1-1.3,2.2-1.7,3.5
		c-0.4,1.3-0.6,2.7-0.4,4.2C166.7,506.3,169.3,510.9,174.1,513.4z M190.3,514.2c5.9-2.3,9.2-7.2,9.8-14.7c0.1-1.5,0-2.9-0.4-4.2
		c-0.4-1.3-1-2.4-1.7-3.5c-0.7-1.1-1.5-2-2.5-2.9c-0.9-0.9-1.9-1.7-2.8-2.4c-1-0.8-2.1-1.4-3.3-1.9c-1.2-0.5-2.3-0.9-3.4-1.2h0.4
		c0.6,0.1,1.3,0.2,2,0.4c0.7,0.2,1.4,0.4,2.2,0.7c0.4,0.2,0.7,0.4,1.1,0.4c0.1,0,0.1,0,0.1,0c0,0,0.1,0,0.1,0c0.2,0,0.4,0.1,0.6,0.2
		c0.3,0.1,0.5,0.2,0.8,0.3c0.3,0.1,0.5,0.2,0.8,0.3h0.2c1.4,0.6,2.5,1.2,3.4,1.8c0.9,0.6,1.7,1.3,2.5,2c1.1,1.1,2,2.3,2.7,3.4
		c0.7,1.1,1.1,2,1.4,2.7c0.3,0.8,0.5,1.6,0.6,2.4c0.1,0.8,0,1.7-0.2,2.5c-0.2,0.8-0.4,1.7-0.6,2.4c-0.3,0.8-0.6,1.5-0.9,2.2
		c-0.2,0.4-0.5,0.9-1,1.4c-0.4,0.6-0.9,1.1-1.5,1.7c-0.6,0.6-1.1,1.1-1.7,1.6c-0.6,0.5-1.1,0.9-1.5,1.1c-0.1,0-0.1,0-0.1,0
		c0,0,0,0-0.1,0c-0.4,0.3-0.7,0.5-1.1,0.7c-0.4,0.2-0.7,0.5-1,0.7c-1.2,0.8-2.3,1.2-3.2,1.4c-0.3,0.1-0.7,0.1-1,0.2
		c-0.4,0.1-0.7,0.1-1.1,0.2c0.1,0,0.1,0,0.2,0C190.2,514.3,190.3,514.2,190.3,514.2z"/>
	<path class="st0" d="M237.3,514.3h-1c0-0.2,0-0.4,0.1-0.6c0.1-1.1,0.1-2.3,0.1-3.4c0-1.1,0-2.2,0-3.3c0.1-1.1,0.1-2.3,0.1-3.4
		s0.1-2.3,0.2-3.4c0.1-1.1,0.2-2.2,0.2-3.2c0-1.1,0-2.1,0-3.2c0-0.6,0-1.2,0-1.8c0-0.6,0-1.2,0-1.8c0-0.7,0-1.4-0.1-2.1
		c-0.1-0.7-0.4-1.3-0.9-1.9c-0.5-0.5-1-0.9-1.7-1c-0.6-0.1-1.2-0.2-1.7-0.2c-0.8,0-1.5,0-2.3,0c-0.8,0-1.6,0-2.3-0.1
		c-0.9,0-1.8,0-2.7,0c-0.9,0-1.7,0-2.6,0c-0.7,0-1.1-0.1-1.2-0.4c-0.2-0.2-0.2-0.5,0-0.9h0.3h2.8c1.5,0,3,0,4.5,0c1.5,0,3,0,4.5,0
		h0.7h0.5h0.2c0.2,0,0.7,0,1.5,0c0.9,0,1.9,0,3,0c1.2,0,2.4,0,3.7,0c1.3,0,2.4,0,3.3,0c0.1,0,0.2,0,0.4,0c0.2,0,0.4,0,0.8,0
		c0.5,0,1.1,0,1.8,0c0.7,0,1.5,0,2.2,0c0.8,0,1.5,0,2.3,0c0.8,0,1.4,0,1.9,0v0.7v0.9c-0.3,0.1-0.5,0.1-0.7,0.1c-0.2,0-0.4,0-0.7,0
		h-0.9h-1.1h-0.3h-2.8c-0.9,0-1.6,0-2.3,0c-0.7,0-1.3,0-1.9-0.1c-0.1-0.1-0.2-0.1-0.3-0.1c-0.8,0-1.5,0.3-2.2,0.8
		c-0.7,0.5-1,1.4-1.1,2.6c-0.1,1.9-0.1,3.8-0.2,5.7c-0.1,1.9-0.1,3.8-0.2,5.7l-0.2,4.6c-0.1,1.6-0.1,3.1-0.2,4.7
		c-0.1,1.5-0.1,3.1-0.2,4.7v0.3h-1.5H237.3z"/>
	<path class="st0" d="M280.2,514.2c-0.9,0-1.5-0.2-1.7-0.6c-0.2-0.4-0.4-0.8-0.4-1.2l-0.1-1.5c-0.1-1.4-0.2-2.8-0.2-4.3
		c-0.1-1.5-0.1-2.9-0.2-4.3c0-1.3,0-2.6,0-3.9c0-1.3,0-2.6,0-4c-0.1-1.5-0.1-3-0.1-4.5c0-1.5,0-3.1-0.1-4.6c0-0.3,0.1-0.6,0.2-0.8
		c0.1-0.2,0.4-0.3,0.9-0.4c0.2-0.1,0.4-0.2,0.6-0.2c0.2,0,0.5,0,0.7,0h0.8c0.3,0.1,0.6,0.1,0.8,0.1c0.2,0,0.3,0,0.4,0v1.4v8.1v7.3
		c0,0.3,0,0.6,0,1.1c0,0.5,0,0.9,0,1.5c0,0.5-0.1,1-0.1,1.5c0,0.5,0,0.9,0,1.2v0.5v-0.1v0.2c-0.1,1-0.2,1.9-0.2,2.9
		c0,1,0,1.9-0.1,2.9c0,0.5,0,0.9,0,1.1c0,0.2-0.1,0.4-0.1,0.5c-0.2,0-0.4,0-0.6,0.1H280.2z"/>
	<path class="st0" d="M323.9,514.6c-1.5,0-2.9-0.1-4.3-0.2c-1.4-0.2-2.8-0.4-4-0.6c-0.9-0.2-1.9-0.6-3.1-1.4c-1.5-1-2.9-2-4.3-3.2
		c-1.4-1.2-2.5-2.5-3.3-4.1c-0.3-0.6-0.6-1.4-0.9-2.2c-0.3-0.8-0.5-1.6-0.6-2.4c-0.1-0.8-0.2-1.7-0.1-2.6c0.1-0.9,0.2-1.7,0.6-2.4
		c0.4-1,1.1-2.2,2.2-3.8c1-1.6,2.4-3,4.2-4.3c0.6-0.4,1.4-0.9,2.3-1.3c0.9-0.4,1.8-0.8,2.6-1.1c4-1.1,7.9-1.6,11.8-1.6h0.6
		c0.6,0,1.2,0.1,1.9,0.3c0.7,0.2,1.3,0.5,2,0.7c0.4,0.1,0.7,0.2,1.1,0.4c0.4,0.2,0.7,0.3,1.1,0.4c0.1,0,0.2,0,0.2,0c0,0,0.1,0,0.2,0
		c0.2,0.1,0.5,0.2,0.7,0.3c0.3,0.1,0.5,0.1,0.8,0.1c0.7,0,1.3-0.2,1.7-0.7c0.4-0.4,0.6-0.9,0.7-1.3c0.3-0.1,0.6-0.1,0.9-0.1
		c0.3,0,0.6,0,0.9,0h0.5c0,0.1,0,0.1,0,0.1c0,0,0,0,0,0.1c0.1,0.8,0.1,1.5,0.1,2.3c0,0.8-0.1,1.6-0.2,2.6l-0.2,0.1h-0.2h-0.6
		c-0.2-0.1-0.5-0.1-0.9-0.1c-0.2,0-0.4,0-0.4,0.1c-0.1,0-0.2,0-0.3,0c-0.1,0-0.2,0-0.3,0c-0.1,0-0.3,0-0.5-0.1
		c-0.2-0.1-0.5-0.4-0.8-1c-0.3-0.7-0.9-1.3-1.6-1.7c-0.7-0.5-1.5-0.7-2.2-0.9h-0.2c-1-0.1-2-0.2-3-0.2c-1-0.1-2.1-0.1-3.2-0.1
		c-0.6,0-1.2,0-1.7,0c-0.6,0-1.2,0.1-1.7,0.2c-2.2,0.3-4.4,1.2-6.7,2.9c-0.8,0.6-1.6,1.3-2.4,2c-0.8,0.8-1.5,1.6-2.2,2.6
		c-0.6,0.9-1.1,2-1.5,3.1c-0.4,1.1-0.5,2.4-0.4,3.7c0.6,7.3,3.9,11.8,10,13.6c1.6,0.5,3.3,0.7,5,0.7c2.9,0,5.5-0.6,7.9-1.8
		c2.4-1.2,4.4-2.4,6.2-3.7c0.2-0.1,0.4-0.3,0.6-0.5c0.2-0.2,0.3-0.4,0.4-0.5c0.1-0.2,0.2-0.3,0.3-0.3c0.1-0.1,0.1-0.1,0.2-0.2v0.2
		c0.1,0.2,0.1,0.5,0.1,0.9c0.1,0.5,0.1,1,0.1,1.3c0,0.3-0.1,0.5-0.2,0.7c-0.1,0.2-0.3,0.4-0.6,0.5c-0.3,0.2-0.6,0.4-1.1,0.7
		c-0.3,0.2-0.6,0.3-1,0.5c-0.4,0.2-0.8,0.4-1.3,0.7c-0.4,0.2-0.9,0.4-1.5,0.5c-0.3,0.1-0.6,0.2-0.9,0.3c-0.4,0.1-0.7,0.2-1,0.3
		C329.8,514.1,327,514.6,323.9,514.6z"/>
	<path class="st0" d="M362.4,514.6h-0.7v-0.1c2-3.2,4-6.4,6-9.6c2-3.2,4-6.4,6-9.5c1.1-1.7,2.2-3.4,3.3-5.1c1.1-1.7,2.3-3.3,3.4-4.9
		l1.5-2c0.1,0,0.1,0,0.2,0c0.1,0,0.2,0,0.4,0c0.6,0,1.1,0.1,1.6,0.3c0.5,0.2,0.8,0.4,0.9,0.6l2.6,5c0.8,1.5,1.5,2.9,2.3,4.3
		c0.8,1.4,1.5,2.9,2.3,4.3c0.4,0.8,1,1.9,1.8,3.4c0.8,1.5,1.6,3,2.4,4.5c1,1.8,2,3.7,3,5.7l0.1,0.2c0.4,0.6,0.6,1,0.8,1.3
		c0.1,0.3,0.2,0.4,0.2,0.5c0,0.1-0.1,0.1-0.2,0.1c-0.1,0-0.2,0-0.2,0h-0.1c-0.3,0-0.6,0-1,0c-0.4,0-0.8,0-1.2,0
		c-0.5,0.1-1.1,0.1-1.6,0.1c-0.5,0-1,0-1.4,0h-0.8c-0.1,0-0.2-0.1-0.3-0.2c-0.1-0.1-0.1-0.2-0.2-0.4c-0.1-0.1-0.1-0.3-0.2-0.4
		c-0.1-0.2-0.2-0.3-0.2-0.4c-0.1-0.1-0.1-0.3-0.2-0.4c-0.1-0.2-0.3-0.4-0.6-0.8c-0.3-0.4-0.6-0.7-1-1.1c-0.4-0.4-0.9-0.6-1.5-0.9
		c-0.6-0.2-1.2-0.4-2-0.4h-0.3h-1.1c-0.3,0-0.6,0-1,0c-0.3,0-0.6,0-0.9-0.1h-1.5h-0.6h-1.9h-2.2h-0.1h-0.2c-0.3,0-0.8,0-1.3,0
		c-0.6,0-1.2,0-1.8,0c-0.6,0-1.3-0.1-1.9-0.1c-0.6,0-1.2,0-1.7,0c-0.1,0-0.1,0-0.1,0c0,0-0.1,0-0.1,0c-1.1,0-2.2,0.4-3.3,1.3
		c-1.1,0.9-1.9,1.9-2.4,3.1c-0.2,0.2-0.4,0.4-0.5,0.7c-0.1,0.2-0.2,0.5-0.3,0.8c-0.1,0.1-0.3,0.1-0.6,0.2
		C363.6,514.5,363.1,514.6,362.4,514.6z M382.2,507.7c0.8,0,1.5,0,2.1,0c0.7,0,1.2,0,1.8,0.1h0.3c0.3,0,0.8-0.1,1.5-0.2
		c0.6-0.1,1.2-0.5,1.5-1.2c0.4-0.7,0.5-1.4,0.2-2c-0.3-0.6-0.6-1.1-0.9-1.5c-0.4-0.6-1.1-1.7-2-3.2c-0.9-1.5-2.1-3.8-3.7-6.8
		c-0.1-0.2-0.2-0.4-0.2-0.4c-0.1-0.1-0.1-0.1-0.1-0.2c-0.4-0.6-0.9-1.1-1.4-1.3c-0.5-0.2-0.9-0.3-1.2-0.3c-0.3,0-0.7,0.1-1.2,0.3
		c-0.5,0.2-0.9,0.6-1.3,1.3l-0.2,0.4c-1.1,1.7-2.2,3.5-3.2,5.2c-1.1,1.8-2.1,3.5-3.1,5.3c-0.5,1-0.6,1.9-0.2,2.8
		c0.4,1,1.2,1.5,2.4,1.6c0.1,0.1,0.2,0.1,0.4,0.1c0.1,0,0.4,0,0.9,0h2.8c0.8,0,1.5,0,2.4,0C380.6,507.7,381.4,507.7,382.2,507.7z"/>
	<path class="st0" d="M453.8,515.1c-0.6,0-1,0-1.3,0c-0.3,0-0.5-0.1-0.7-0.1c0-0.1,0-0.2,0-0.3c0-0.1,0-0.2,0-0.3
		c-0.1-0.6-0.2-1.4-0.4-2.3c-0.2-0.9-0.5-2-0.9-3.3c-0.3-0.8-0.8-1.8-1.5-2.8c-0.7-1.1-1.7-2.1-3.1-3.1c-1.4-1-3.1-1.9-5.2-2.7
		c-2.1-0.8-4.8-1.3-8.1-1.6h-0.3h-1.7c-0.2,0-0.5,0-0.9,0.1c-0.5,0.1-0.9,0.3-1.3,0.7c-0.5,0.5-0.8,1.3-0.8,2.3v1.1
		c0.1,1.4,0.1,2.8,0.1,4.3c0,1.5,0,2.9-0.1,4.3v1.5c0.1,0.2,0.1,0.5,0.1,0.9c0,0.4,0,0.6,0,0.8c-0.1,0.2-0.2,0.4-0.3,0.7h-0.3h-0.2
		l-0.9-0.1c-0.5,0-1.1,0-1.6,0c-0.5,0-1,0-1.6-0.1h-0.5v-0.2c-0.1-0.9-0.1-1.7-0.1-2.5c0-0.8-0.1-1.7-0.1-2.5l-0.1-2.6
		c0.1-0.4,0.1-0.9,0.1-1.3c0-0.4,0.1-0.9,0.2-1.3c0.1-1.1,0.2-2.2,0.3-3.3c0.1-1.1,0.2-2.2,0.2-3.3c0.1-1.2,0.1-2.5,0-3.7
		c-0.1-1.2-0.1-2.4-0.2-3.6c-0.1-0.8-0.1-1.5-0.1-2.2c0-0.7,0-1.4,0-2.1c0-0.3,0-0.5,0-0.8c0-0.3,0.1-0.5,0.1-0.8
		c0.1-0.2,0.1-0.4,0.1-0.6c0-0.2,0-0.4,0.1-0.6v-0.4c0-0.1,0-0.1,0.1-0.1h0.2c0.1,0,0.1,0,0.2,0c0.1,0,0.2,0,0.3,0h7.4
		c1.4,0.1,2.8,0.1,4.3,0.1c1.4,0,2.9,0,4.3,0c1.4,0.1,2.8,0.1,4.3,0.2c1.4,0.1,2.9,0.2,4.3,0.3c2.3,0.2,4.4,1.1,6.4,2.8
		c2.5,2.2,2.7,4.6,0.6,7.2c-0.9,1.1-2.9,2.2-6,3.1c-0.1,0-0.1,0-0.1,0c0,0,0,0-0.1,0h-0.1c-0.3,0.1-0.7,0.3-1.2,0.6
		c-0.5,0.3-0.7,0.8-0.8,1.5c-0.1,0.8,0.1,1.3,0.6,1.7c0.5,0.4,1,0.7,1.4,0.9c1.4,0.8,2.5,1.7,3.4,2.8c0.9,1.1,1.6,2.2,2.2,3.4
		c0.6,1.2,1,2.2,1.3,3.2c0.3,1,0.4,1.8,0.4,2.3v1.7c-0.4,0.1-0.8,0.1-1.2,0.1C454.5,515.1,454.1,515.1,453.8,515.1z M431.6,497.4
		c0.5,0,1.1,0,1.6,0c0.5,0,1.1,0.1,1.7,0.1c0.6,0.1,1.2,0.1,1.8,0.1c0.6,0,1.2,0,1.8,0c0.6,0,1.2,0,1.8-0.1c0.5-0.1,1.1-0.1,1.6-0.2
		c1.4-0.3,2.8-0.6,4.1-1.1c1.4-0.4,2.6-1.2,3.7-2.4c0.5-0.5,0.9-1.1,1.2-1.7c0.3-0.6,0.4-1.2,0.4-1.8c0-0.8-0.1-1.5-0.4-2.2
		c-0.3-0.6-0.6-1.2-1.1-1.7c-0.4-0.5-0.9-0.9-1.4-1.2c-0.5-0.3-0.9-0.5-1.4-0.6c-1.8-0.6-3.5-1-5.1-1.1c-1.5-0.2-3.2-0.2-5.1-0.2
		h-1.5c-0.7,0-1.4,0-2.2,0c-0.8,0-1.5-0.1-2.4-0.2h-0.4c-0.9,0-1.7,0.3-2.3,0.9c-0.4,0.4-0.6,0.9-0.6,1.3c-0.1,0.5-0.1,0.9-0.1,1.3
		c0.1,0.4,0.1,0.8,0.1,1.4c0,0.5,0.1,1.1,0.1,1.5c0,0.5,0,0.9,0,1.3c0,0.4,0,0.7,0,0.8v0.7c0,0.3,0,0.6,0,0.9c0,0.3,0,0.6,0,0.9
		c0,0.2,0,0.5,0.1,0.9c0.1,0.4,0.3,0.8,0.6,1.2c0.5,0.5,1.2,0.8,2,0.8h0.2H431.6z"/>
	<path class="st0" d="M483.6,513.9c-0.9-0.2-1.9-0.5-2.9-0.8c-1-0.3-1.9-0.7-2.6-1.1c-0.1-0.1-0.2-0.4-0.2-0.8
		c-0.1-0.4-0.1-0.8-0.1-1.1c0.2,0,0.4,0,0.6,0c0.2,0,0.4,0,0.6,0h1.5v0.2c0.1,0.4,0.1,0.8,0.2,1.2c0.1,0.4,0.3,0.9,0.7,1.3
		c0.2,0.2,0.5,0.4,0.9,0.6C482.8,513.6,483.2,513.8,483.6,513.9z M496.7,498.7c-1.1,0-2.3,0-3.5-0.1c-1.2-0.1-2.3-0.2-3.3-0.4
		c-0.3-0.1-0.8-0.1-1.4-0.2c-0.6-0.1-1.2-0.2-1.8-0.3c-0.6-0.1-1.2-0.2-1.7-0.4c-0.5-0.1-0.9-0.2-1-0.3l-0.9-0.3
		c-0.9-0.4-1.6-0.7-2-0.9c-0.4-0.2-0.9-0.6-1.3-1.1c-0.1-0.1-0.3-0.3-0.5-0.6c-0.2-0.3-0.5-0.6-0.7-1.1c-0.2-0.4-0.4-0.8-0.4-1.3
		c-0.1-0.4,0-0.8,0.3-1.1c0.4-0.5,1.1-1.2,2-2.1c1-0.9,2.4-1.7,4.1-2.4c0.6-0.3,1.4-0.5,2.4-0.8c1-0.3,1.9-0.5,2.8-0.6
		c2-0.3,4-0.6,6-0.7c2-0.2,4-0.2,5.9-0.2h0.6h1.1c-0.8,0-1.5,0-2.2,0.1c-0.7,0.1-1.4,0.1-2.1,0.2c-0.4,0-0.7,0-1.1,0
		c-0.3,0-0.6,0.1-1,0.1c-1,0.1-2.1,0.2-3.3,0.4c-1.2,0.2-2.4,0.5-3.3,0.9l-0.6,0.2c-0.8,0.3-1.6,0.7-2.3,1.1
		c-0.7,0.4-1.4,0.8-1.9,1.3c-0.6,0.5-1,1.1-1.3,1.7c-0.3,0.6-0.4,1.4-0.2,2.4c0.3,2.1,1.1,3.5,2.4,4.2c1.4,0.8,3.2,1.4,5.6,1.9h0.2
		c0.6,0.1,1.4,0.2,2.1,0.2C495.2,498.6,495.9,498.7,496.7,498.7z M501.4,514.1c0.8-0.2,1.4-0.3,1.9-0.5c0.8-0.3,1.5-0.6,2.1-0.9
		c0.6-0.3,1.1-0.6,1.6-1c0.5-0.4,0.9-0.8,1.3-1.3c0.4-0.5,0.8-1.1,1.1-1.9c0.4-0.8,0.6-1.6,0.5-2.4c-0.1-0.8-0.3-1.5-0.8-2.2
		c-0.4-0.7-1-1.4-1.7-1.9c-0.7-0.6-1.4-1.1-2.2-1.6c-1.1-0.6-2.3-1.1-3.7-1.4c0.8,0.1,1.4,0.1,2,0.1c0.6,0,1,0,1.2,0
		c1.8,0.3,3.4,0.8,4.6,1.3c1.2,0.6,2.2,1.2,3,1.8c0.8,0.6,1.3,1.2,1.7,1.8c0.4,0.6,0.7,1.1,0.9,1.5c0.4,0.6,0.4,1.4,0,2.2
		c-0.4,0.8-0.8,1.4-1.2,1.9c-0.4,0.5-1,1-1.7,1.4c-0.7,0.5-2,1-3.8,1.7c-0.6,0.3-1.3,0.5-2.2,0.7c-0.9,0.2-1.8,0.3-2.7,0.4
		L501.4,514.1z M511.4,485.7c-0.3-0.2-0.7-0.3-1.3-0.5c-0.5-0.2-1.1-0.4-1.7-0.6C509.7,484.9,510.7,485.2,511.4,485.7z"/>
</g>
</svg>
