<?xml version="1.0" encoding="utf-8"?>
<!-- Generator: Adobe Illustrator 21.0.2, SVG Export Plug-In . SVG Version: 6.00 Build 0)  -->
<svg version="1.1" id="Layer_1" xmlns="http://www.w3.org/2000/svg" xmlns:xlink="http://www.w3.org/1999/xlink" x="0px" y="0px"
	 viewBox="0 0 100 100" style="enable-background:new 0 0 100 100;" xml:space="preserve">
<style type="text/css">
	.st0{fill:#B3B3B1;}
	.st1{fill:#B3B3B3;}
	.st2{fill-rule:evenodd;clip-rule:evenodd;fill:#B3B3B3;}
	.st3{fill-rule:evenodd;clip-rule:evenodd;fill:#B3B3B1;}
</style>
<path class="st0" d="M42.8,23.9H58c7.2,0,12.4,0.6,15.9,2.1c3.4,1.4,5.7,3.5,6.9,6.3c1.1,2.8,1.5,6.3,1.1,10.6
	c-0.4,4.2-0.8,9.2-1.3,14.9c-0.3,3.4-1,6.2-2,8.4c-1,2.2-2.3,4-4,5.3c-1.7,1.3-3.8,2.1-6.2,2.6s-5.3,0.6-8.5,0.5l-18.6,0.1
	c-3.2,0.1-6.1-0.1-8.5-0.5c-2.5-0.5-4.5-1.4-6.2-2.7c-1.7-1.3-3.1-3-4-5.3c-1-2.2-1.7-5-2-8.4c-0.5-5.7-1-10.6-1.4-14.9
	c-0.4-4.2,0-7.8,1.1-10.6c1.1-2.8,3.4-4.9,6.9-6.4C30.4,24.6,35.7,23.9,42.8,23.9z M43.1,72.6h14.6c5.9,0,10.5-0.8,14-2.3
	s5.4-5.8,5.8-12.8c0.3-4.6,0.6-8.8,1-12.6c0.4-3.8,0.3-7-0.3-9.8c-0.6-2.7-2.1-4.9-4.5-6.4c-2.3-1.5-6.1-2.3-11.4-2.4H38.5
	c-5.3,0.1-9.1,0.9-11.4,2.5c-2.3,1.5-3.8,3.7-4.4,6.4c-0.6,2.7-0.8,6-0.3,9.8c0.4,3.8,0.7,8,0.9,12.6c0.5,7.1,2.4,11.3,5.9,12.8
	S37.3,72.6,43.1,72.6z M31.9,28.5l2.8,41.9l6.1,0.2l2.6-8c0.4-1.8,2-3,4.7-3.6h4.5c2.2,0.1,3.9,1.2,5.1,3.5l2.4,8l6.3-0.3L69,28.4
	L64.7,28l-4.9,21.2c-1,3.1-3.1,5.1-6.4,6.1h-5.8c-2.8-0.4-5-2.3-6.4-5.9l-4.9-21.2L31.9,28.5z"/>
</svg>
